<?xml version="1.0" standalone="no"?>
<!DOCTYPE svg PUBLIC "-//W3C//DTD SVG 20010904//EN"
 "http://www.w3.org/TR/2001/REC-SVG-20010904/DTD/svg10.dtd">
<svg version="1.0" xmlns="http://www.w3.org/2000/svg"
 width="1200.000000pt" height="1200.000000pt" viewBox="0 0 1200.000000 1200.000000"
 preserveAspectRatio="xMidYMid meet">
<metadata>
Created by potrace 1.14, written by Peter Selinger 2001-2017
</metadata>
<g transform="translate(0.000000,1200.000000) scale(0.100000,-0.100000)"
fill="#000000" stroke="none">
<path d="M0 9500 l0 -2500 28 0 c15 0 33 -4 41 -9 19 -12 6 -41 -18 -41 -40 0
-51 -11 -51 -50 0 -29 4 -39 20 -43 16 -4 20 0 20 19 0 13 -4 24 -10 24 -18 0
-10 28 9 33 28 7 31 1 31 -60 0 -67 -13 -93 -45 -93 l-25 0 0 -3390 0 -3390
6000 0 6000 0 0 4178 0 4178 -22 1 c-42 4 -53 27 -53 118 0 91 11 114 53 118
l22 1 0 1273 0 1273 -30 42 c-23 31 -30 52 -30 85 0 48 21 97 45 106 13 6 15
47 15 317 l0 310 -6000 0 -6000 0 0 -2500z m7549 2161 c29 -40 29 -130 2 -155
-45 -41 -87 -2 -98 93 -5 41 -2 52 16 70 29 29 56 26 80 -8z m-3679 -67 c0
-31 -11 -84 -19 -84 -3 0 -6 36 -6 81 0 72 1 77 12 52 7 -15 12 -38 13 -49z
m3482 -10 c3 -43 4 -82 1 -87 -9 -15 -23 5 -23 36 0 18 -5 49 -11 70 -12 43
-6 71 14 65 7 -3 14 -34 19 -84z m-2873 -169 c16 -8 40 -28 55 -45 21 -26 26
-42 26 -88 0 -56 0 -57 -60 -113 l-60 -56 -2 -761 -3 -760 -24 -26 c-55 -58
-53 -93 -50 775 l2 802 -22 16 c-58 44 -78 129 -46 192 34 64 124 96 184 64z
m1039 1 c56 -29 76 -62 80 -132 l4 -65 -41 -39 -41 -39 0 -393 c0 -216 -3
-403 -6 -416 -6 -19 -49 -52 -69 -52 -3 0 -5 189 -5 420 l0 419 -26 18 c-80
55 -88 67 -92 134 -3 55 -1 68 19 93 48 61 119 82 177 52z m987 -10 c26 -16
50 -41 65 -69 31 -59 23 -101 -34 -164 l-43 -48 1 -362 1 -363 -26 0 c-49 0
-49 0 -49 382 l0 358 -40 20 c-100 51 -99 199 2 249 55 27 72 26 123 -3z m488
-10 c37 -29 44 -40 58 -96 11 -46 -18 -111 -60 -136 l-31 -18 0 -493 c0 -388
-3 -493 -12 -493 -7 0 -25 12 -40 25 l-28 24 0 466 0 465 -22 9 c-26 10 -60
45 -77 78 -29 57 1 140 65 180 49 30 98 26 147 -11z m908 12 c26 -14 47 -38
65 -73 l28 -52 -18 -48 c-13 -32 -31 -55 -57 -73 l-38 -27 -3 -825 -3 -824
-35 31 -35 31 -3 797 -2 796 -33 19 c-36 21 -67 75 -67 117 0 49 37 108 82
131 54 27 71 27 119 0z m504 -3 c68 -39 94 -120 60 -184 -8 -16 -34 -45 -57
-64 l-43 -36 -4 -1081 c-3 -1040 -4 -1080 -21 -1065 -10 9 -28 39 -40 68 l-22
51 6 525 c3 289 9 743 12 1009 l6 483 -51 54 c-50 53 -51 55 -51 117 0 59 2
66 33 95 64 61 105 68 172 28z m724 -13 c77 -63 76 -151 -3 -226 l-41 -40 -3
-1430 c-1 -787 0 -1437 3 -1444 4 -12 8 -12 21 -1 12 10 66 13 220 13 112 0
205 3 206 6 1 4 11 2027 11 2272 0 94 -1 98 -31 132 -35 40 -47 86 -39 152 6
57 35 88 98 109 46 16 50 15 94 -4 39 -17 50 -28 71 -76 26 -56 26 -57 9 -101
-16 -42 -76 -103 -116 -117 -15 -5 -17 -89 -18 -1014 0 -554 -4 -1082 -7
-1173 -5 -122 -3 -173 7 -195 9 -23 13 -26 16 -12 5 20 23 23 24 5 0 -10 2
-10 6 0 3 8 39 12 126 13 67 0 145 4 174 8 82 12 112 -17 46 -44 -29 -12 -69
-14 -214 -11 -188 5 -199 2 -181 -41 6 -16 31 -18 277 -21 149 -2 417 -6 598
-8 l327 -5 2 125 c1 70 2 150 3 178 l0 53 -328 0 c-181 0 -331 -4 -334 -9 -3
-4 -6 -70 -5 -146 0 -76 -4 -143 -8 -150 -4 -7 -16 -9 -29 -5 -24 7 -24 9 -21
188 2 121 -6 142 -46 126 -30 -11 -277 -11 -349 1 -27 4 -44 8 -37 9 6 0 12 7
12 15 0 11 13 14 53 14 28 0 102 1 162 2 61 2 129 0 151 -4 31 -6 43 -4 47 7
3 8 6 595 8 1306 l3 1292 -37 35 c-43 41 -52 67 -42 130 8 54 49 104 68 85 9
-9 8 -16 -1 -29 -26 -36 -43 -84 -36 -105 6 -22 62 -87 74 -87 4 0 25 23 47
50 37 45 40 54 33 82 -5 17 -17 39 -25 48 -12 13 -13 20 -5 25 16 10 45 -20
56 -58 15 -48 1 -92 -45 -142 l-41 -45 3 -1292 2 -1293 329 -3 c293 -2 331 -1
339 13 8 15 10 15 21 0 10 -14 43 -16 257 -16 l245 -1 72 33 c68 30 92 33 78
11 -3 -6 -30 -26 -60 -46 l-54 -36 -265 0 c-295 0 -283 3 -271 -70 4 -22 3
-108 -1 -192 l-7 -153 -611 0 -612 -1 -2 -634 c-1 -349 -5 -645 -8 -657 -3
-14 -18 -26 -42 -34 -56 -18 -135 -59 -161 -82 -28 -26 -55 -14 -60 25 -4 31
11 44 111 93 l82 40 2 650 c1 358 4 661 7 675 2 14 2 30 -2 36 -5 7 -74 7
-210 1 -191 -8 -205 -8 -224 10 l-20 18 3 -353 c2 -193 1 -352 -3 -352 -13 0
-37 56 -54 122 -12 47 -18 130 -21 320 -5 257 -5 258 -27 253 -11 -3 -50 -6
-85 -7 -61 -3 -66 -1 -80 24 -9 15 -13 28 -11 30 3 2 48 1 100 -2 58 -3 98 -2
102 4 4 6 7 641 8 1413 0 771 3 1409 6 1417 8 21 -13 54 -46 71 -45 23 -63 68
-57 137 6 66 15 81 66 109 48 26 103 19 150 -19z m-5103 0 c26 -19 47 -71 46
-113 -1 -41 -28 -85 -67 -109 l-35 -22 -1 -686 c-1 -378 -1 -820 1 -983 2
-304 -3 -360 -38 -374 -25 -9 -34 6 -27 48 4 22 9 392 10 821 1 430 6 868 10
974 8 191 8 193 -14 208 -26 18 -65 79 -74 113 -11 43 24 105 74 130 47 23 76
21 115 -7z m-2075 -20 c61 -68 47 -160 -33 -218 -28 -21 -48 -44 -48 -55 0
-24 -20 -25 -20 -1 -1 9 -18 29 -40 44 -50 35 -71 68 -77 121 -10 88 53 152
141 144 40 -4 55 -11 77 -35z m-600 -3 c36 -19 59 -112 37 -152 -15 -27 -74
-80 -100 -90 -11 -4 -35 12 -75 47 -56 52 -58 55 -56 101 3 73 53 132 92 108
15 -10 20 -9 25 2 5 15 29 10 77 -16z m1552 24 c-7 -2 -13 -11 -13 -19 0 -8
-4 -14 -9 -14 -5 0 -17 -21 -27 -46 -17 -46 -17 -48 4 -84 19 -34 20 -39 5
-44 -44 -17 -64 114 -27 172 14 22 47 41 69 41 6 -1 4 -3 -2 -6z m8011 -20
c33 -25 56 -69 56 -108 0 -60 -94 -144 -144 -131 -95 26 -132 188 -57 247 21
17 35 20 73 15 27 -3 59 -13 72 -23z m-7914 -149 c0 -3 -6 -12 -14 -19 -17
-18 -29 -8 -13 11 12 14 27 18 27 8z m-120 -54 c0 -5 -4 -10 -10 -10 -5 0 -10
5 -10 10 0 6 5 10 10 10 6 0 10 -4 10 -10z m-526 -91 c3 -30 9 -110 15 -179 6
-69 13 -514 16 -990 4 -476 11 -878 16 -895 7 -22 45 -58 136 -130 69 -55 139
-112 155 -127 l28 -26 0 -300 c0 -164 3 -302 7 -305 3 -4 13 -1 21 6 11 9 74
12 244 10 227 -2 228 -2 233 20 10 39 -2 2149 -12 2202 -30 153 -38 184 -55
222 -14 30 -34 51 -69 73 -27 16 -53 30 -58 30 -16 0 -20 33 -13 96 11 85 39
114 119 121 56 5 62 3 92 -24 30 -26 34 -36 38 -96 5 -59 3 -72 -16 -97 -11
-16 -21 -33 -21 -39 0 -5 -6 -11 -12 -14 -9 -3 -6 -10 8 -21 33 -24 42 -99 59
-481 11 -249 15 -595 15 -1198 0 -917 0 -918 -53 -1006 -13 -20 -28 -48 -35
-63 l-12 -28 -140 -2 c-77 -1 -156 -2 -175 -2 -19 -1 -35 4 -35 9 0 6 63 11
162 13 148 2 165 5 180 22 17 21 42 143 36 182 l-3 23 -239 3 c-156 1 -244 6
-253 13 -11 10 -13 -95 -13 -615 0 -706 -8 -641 80 -686 36 -18 40 -24 40 -58
0 -52 -12 -67 -39 -53 -11 7 -21 15 -21 19 0 5 -27 25 -61 47 -33 21 -65 49
-70 62 -5 14 -9 301 -9 654 l0 629 -27 -6 c-15 -4 -326 -8 -692 -8 l-666 -1
-1 195 c0 107 -1 200 -2 205 -1 6 -103 10 -281 10 -276 0 -280 0 -308 23 -15
12 -44 35 -64 50 -20 15 -43 36 -50 47 -17 26 -26 472 -11 525 9 32 10 33 11
8 1 -15 5 -29 10 -33 5 -3 10 -97 11 -212 0 -114 3 -219 7 -233 7 -32 37 -65
88 -99 l40 -26 269 -5 c243 -5 269 -3 277 12 7 13 14 1239 10 1834 0 62 4 138
9 170 5 33 10 81 11 107 1 26 6 50 11 53 4 3 8 -163 9 -368 2 -817 6 -1793 7
-1798 1 -3 209 -5 463 -4 527 3 543 1 546 -58 3 -49 -26 -78 -76 -78 -21 0
-41 3 -44 7 -9 8 24 32 45 33 10 0 22 9 28 20 9 17 7 20 -15 26 -15 4 -45 3
-68 -1 -34 -6 -142 -10 -342 -13 -11 0 -121 2 -245 6 -124 4 -241 5 -260 2
l-35 -5 -2 -162 c-2 -92 1 -164 7 -168 5 -3 306 -6 669 -8 l661 -2 0 280 0
280 -97 80 c-53 44 -126 102 -162 129 l-64 49 6 1072 c3 589 9 1079 13 1088
10 26 13 17 18 -44z m556 -946 c-3 -549 -5 -1085 -5 -1191 l0 -193 98 -92 c87
-83 113 -117 89 -117 -5 0 -38 28 -73 63 -35 34 -84 80 -107 101 -24 21 -48
52 -53 69 -11 34 -15 1353 -5 1442 3 28 10 228 16 445 11 416 15 470 33 470 9
0 11 -244 7 -997z m-1035 737 c4 -91 9 -457 11 -815 2 -357 3 -665 4 -684 0
-26 10 -43 48 -80 26 -25 60 -63 76 -83 20 -28 34 -38 55 -38 15 0 31 -3 34
-7 4 -3 34 -7 67 -8 33 -1 63 -5 67 -9 5 -5 -43 -6 -105 -3 -112 4 -114 5
-131 33 -10 16 -35 46 -55 66 -20 20 -36 42 -36 47 0 6 -9 15 -20 21 -11 6
-27 25 -36 42 -15 28 -16 62 -11 278 4 135 7 510 7 835 0 343 4 585 9 580 5
-6 12 -84 16 -175z m8963 -58 c2 -552 0 -1712 -2 -1737 -2 -16 -4 -132 -5
-257 0 -126 -5 -228 -9 -228 -5 0 -8 343 -7 763 2 1234 7 1694 15 1659 4 -19
8 -109 8 -200z m-5888 123 c43 -22 79 -76 86 -127 7 -51 0 -68 -54 -131 l-39
-44 5 -318 5 -318 -24 -18 c-55 -43 -54 -48 -51 313 l4 333 -54 35 c-43 29
-56 44 -71 85 -16 42 -17 56 -7 92 25 87 126 136 200 98z m3857 -49 c33 -30
37 -39 41 -94 4 -60 3 -63 -30 -94 -19 -18 -47 -43 -62 -55 l-27 -22 1 -276 2
-277 -65 -67 c-54 -56 -66 -75 -72 -112 -3 -24 -5 -313 -3 -642 2 -328 -1
-597 -5 -597 -18 0 -56 50 -66 86 -14 53 -4 1179 11 1207 5 11 37 48 69 83 32
34 61 73 63 86 3 13 7 134 9 271 l5 247 -40 32 c-46 36 -60 66 -59 126 1 83
51 131 139 132 46 0 57 -4 89 -34z m-5187 4 c29 -29 40 -63 40 -122 0 -47 -3
-53 -45 -91 l-45 -41 0 -269 0 -268 79 -83 c57 -59 81 -93 86 -117 3 -19 5
-263 3 -544 -3 -398 -6 -518 -17 -545 -12 -32 -36 -60 -50 -60 -3 0 -5 237 -3
527 2 291 0 552 -3 582 -6 50 -12 60 -80 131 l-74 78 6 280 6 279 -47 28 c-55
32 -66 54 -66 136 0 54 3 64 29 90 27 26 36 29 95 29 53 0 70 -4 86 -20z
m-3468 -193 c2 -97 7 -177 11 -177 4 0 3 -9 -3 -19 -7 -14 -6 -21 3 -24 9 -3
9 -8 1 -17 -8 -8 -9 -24 -3 -48 4 -20 8 -365 9 -767 0 -401 3 -798 7 -882 l6
-152 29 -12 c15 -6 42 -27 58 -46 58 -66 31 -166 -56 -204 -57 -26 -91 -19
-135 27 -32 33 -34 40 -34 101 0 65 0 66 43 102 l43 37 -1 520 c-1 531 11
1747 16 1741 2 -2 5 -83 6 -180z m1143 163 c3 -5 1 -10 -4 -10 -6 0 -11 5 -11
10 0 6 2 10 4 10 3 0 8 -4 11 -10z m5 -34 c0 -3 -4 -8 -10 -11 -5 -3 -10 -1
-10 4 0 6 5 11 10 11 6 0 10 -2 10 -4z m6013 -136 c7 0 29 9 50 20 20 11 39
20 42 20 12 0 3 -37 -15 -65 -19 -28 -20 -47 -19 -355 0 -257 3 -333 14 -365
8 -22 15 -44 15 -48 0 -17 -58 27 -76 57 -17 28 -19 61 -24 359 -5 314 -6 329
-25 345 -11 9 -29 27 -40 40 -16 19 -17 25 -5 32 9 6 23 1 43 -16 16 -13 34
-24 40 -24z m-1047 -455 c71 -25 145 -53 164 -62 19 -9 76 -35 125 -57 179
-82 364 -186 558 -316 55 -36 106 -69 115 -75 62 -38 260 -192 382 -297 376
-324 772 -822 939 -1181 58 -123 111 -249 142 -331 17 -44 35 -92 41 -106 53
-128 321 -941 377 -1145 28 -104 46 -164 92 -315 12 -36 35 -119 53 -185 18
-66 40 -142 48 -170 8 -27 26 -86 38 -130 12 -44 29 -100 36 -125 7 -25 25
-97 40 -160 14 -63 34 -146 44 -185 10 -38 28 -124 40 -190 12 -66 28 -156 36
-201 19 -108 44 -439 44 -589 -1 -317 -47 -658 -120 -875 -10 -30 -28 -86 -40
-125 -28 -88 -100 -257 -153 -355 -49 -94 -174 -282 -247 -375 -79 -100 -139
-181 -184 -250 -176 -272 -387 -519 -606 -709 -119 -104 -324 -269 -455 -367
-121 -90 -142 -103 -90 -53 22 21 71 67 109 103 110 104 476 489 476 500 0 6
8 8 18 4 9 -3 14 -3 10 2 -4 4 -3 16 3 27 10 18 8 19 -12 13 -12 -4 -50 -28
-83 -52 -34 -25 -95 -61 -136 -81 -41 -20 -110 -56 -152 -80 -78 -45 -121 -53
-81 -16 81 74 514 528 585 613 87 104 112 138 242 331 141 211 295 499 371
696 61 156 130 420 151 569 21 153 15 522 -11 660 -19 104 -78 316 -106 384
-11 25 -28 64 -37 86 -32 75 -134 280 -175 350 -255 442 -476 727 -852 1098
-353 351 -680 592 -1037 767 -252 124 -415 184 -618 227 -527 113 -1147 -115
-1855 -681 -134 -107 -494 -463 -615 -608 -207 -248 -424 -556 -548 -778 -127
-227 -148 -269 -229 -465 -40 -99 -103 -352 -118 -475 -31 -249 -12 -523 55
-805 55 -235 86 -317 210 -570 76 -156 139 -267 215 -380 143 -212 262 -372
350 -470 40 -44 94 -107 120 -139 63 -78 363 -378 443 -444 35 -29 60 -52 57
-52 -7 0 -161 79 -255 131 -41 23 -128 77 -193 120 -74 50 -117 73 -117 64 0
-8 3 -15 8 -15 4 0 16 -17 27 -37 11 -21 39 -56 62 -79 24 -22 56 -58 73 -79
46 -58 293 -310 395 -402 49 -45 87 -84 85 -86 -14 -13 -544 431 -711 594
-191 187 -394 431 -477 572 -20 34 -75 112 -122 172 -170 218 -236 316 -319
480 -118 230 -220 544 -251 775 -6 47 -18 123 -26 169 -17 101 -20 680 -3 781
6 36 19 130 29 210 21 161 45 299 60 345 5 17 21 84 34 150 14 66 33 143 41
170 15 47 45 155 116 409 17 60 53 184 81 275 27 91 56 186 63 211 7 25 25 86
40 135 51 169 67 220 81 270 40 143 259 764 361 1025 36 94 146 321 200 415
53 91 245 359 366 509 171 213 554 574 797 751 134 98 334 229 458 301 77 43
378 194 390 194 4 0 13 5 20 12 6 6 69 31 139 54 173 58 210 58 379 -1z
m-4491 -365 c3 -5 -3 -10 -14 -10 -12 0 -21 5 -21 10 0 6 6 10 14 10 8 0 18
-4 21 -10z m-224 -27 c-8 -15 -10 -15 -11 -2 0 17 10 32 18 25 2 -3 -1 -13 -7
-23z m73 11 c3 -9 6 -37 6 -64 0 -58 -7 -80 -26 -80 -12 0 -12 4 -4 21 7 11
10 47 8 80 -3 57 4 75 16 43z m132 -151 c-7 -7 -26 7 -26 19 0 6 6 6 15 -2 9
-7 13 -15 11 -17z m-1113 -243 c30 -24 47 -74 47 -138 0 -51 -27 -83 -96 -114
-53 -23 -79 -19 -124 18 -62 53 -78 128 -39 190 32 52 56 64 125 64 47 0 68
-5 87 -20z m11021 6 c37 -15 86 -87 86 -125 0 -48 -45 -103 -109 -136 -42 -21
-67 -15 -113 30 -57 56 -65 158 -15 202 50 46 92 54 151 29z m-70 -294 c9 -15
9 -149 2 -703 -6 -528 -6 -536 14 -582 17 -37 20 -58 14 -95 -12 -83 -28 -110
-81 -133 -34 -15 -89 -60 -193 -164 -80 -78 -156 -148 -169 -155 -16 -8 -83
-12 -215 -12 -226 1 -239 -3 -309 -89 -26 -33 -83 -87 -125 -120 -42 -33 -120
-102 -172 -152 -52 -51 -111 -105 -130 -121 -34 -28 -86 -72 -225 -195 -38
-34 -92 -75 -120 -90 -69 -39 -119 -82 -267 -229 -71 -69 -130 -123 -133 -120
-3 3 -8 21 -11 40 -6 32 -2 38 47 79 30 24 86 74 126 111 92 85 174 147 239
182 56 30 178 135 195 169 7 13 11 74 10 161 -2 196 1 634 6 796 2 74 3 155 3
180 0 53 18 106 32 92 11 -11 13 -1092 2 -1149 -9 -46 -1 -43 82 37 156 148
240 224 292 262 30 22 85 71 121 108 60 61 71 69 116 75 28 3 57 10 66 15 9 4
22 4 30 -1 8 -5 74 -9 148 -9 176 0 185 4 338 166 65 69 119 129 120 132 2 4
-13 18 -32 31 -37 25 -65 70 -65 106 0 11 -5 26 -11 32 -46 46 117 129 196
100 20 -7 20 -2 22 501 3 654 10 788 37 744z m-8890 -11 c3 -5 -1 -12 -9 -15
-19 -7 -76 4 -71 13 7 11 74 13 80 2z m421 -7 l40 -12 -60 -1 c-34 -1 -65 3
-70 8 -6 5 -28 12 -50 14 -22 2 -8 4 30 4 39 0 88 -6 110 -13z m427 -2 c9 -9
-2 -12 -47 -12 -33 0 -78 3 -100 7 l-40 7 35 6 c58 9 140 4 152 -8z m5658 14
c0 -2 -7 -9 -15 -16 -12 -10 -15 -10 -15 4 0 9 7 16 15 16 8 0 15 -2 15 -4z
m262 -8 c-10 -10 -197 -22 -219 -14 -35 14 6 21 116 22 61 0 108 -3 103 -8z
m340 4 c-7 -2 -10 -8 -6 -13 9 -14 -29 -10 -50 6 -18 14 -16 15 24 13 25 -1
39 -3 32 -6z m192 -1 c3 -5 -1 -11 -9 -15 -9 -3 -15 0 -15 9 0 16 16 20 24 6z
m-129 -11 c3 -5 1 -10 -4 -10 -6 0 -11 5 -11 10 0 6 2 10 4 10 3 0 8 -4 11
-10z m40 0 c3 -5 1 -10 -4 -10 -6 0 -11 5 -11 10 0 6 2 10 4 10 3 0 8 -4 11
-10z m-8495 -120 c13 -8 13 -10 -2 -10 -9 0 -20 5 -23 10 -8 13 5 13 25 0z
m8074 -517 c-4 -10 -10 -42 -13 -72 -3 -30 -12 -56 -18 -59 -10 -3 -13 16 -13
72 0 75 0 76 26 76 21 0 25 -3 18 -17z m-6934 -15 c0 -6 -10 -8 -22 -4 -13 3
-49 6 -80 6 -32 0 -58 3 -58 8 0 4 36 6 80 4 47 -2 80 -8 80 -14z m540 -224
c-3 -38 -8 -64 -12 -58 -9 13 -8 215 1 229 9 15 17 -93 11 -171z m-1268 31 c0
-26 -3 -49 -6 -52 -3 -4 -6 20 -6 52 0 32 3 56 6 53 3 -4 6 -27 6 -53z m-1186
-384 c49 -22 74 -55 74 -96 -1 -39 -30 -103 -62 -135 l-26 -25 142 -147 141
-146 65 -7 c36 -3 130 -7 210 -10 80 -2 147 -4 149 -4 4 -1 335 -325 436 -427
33 -33 107 -111 164 -172 56 -62 115 -119 130 -126 14 -7 61 -16 104 -19 l77
-6 0 232 c0 128 -3 241 -6 253 -4 16 -19 24 -60 33 -30 7 -54 18 -54 24 0 15
20 46 20 32 0 -5 5 -3 10 5 8 12 10 11 10 -6 0 -25 40 -37 77 -23 19 7 23 16
23 54 0 32 -4 45 -14 45 -12 0 -30 39 -22 47 1 2 14 -3 28 -9 27 -13 38 -42
38 -98 0 -16 7 -30 16 -34 9 -3 69 -6 135 -6 65 0 119 -3 119 -7 0 -5 -64 -8
-142 -8 l-143 0 -3 -115 c-2 -63 0 -171 4 -240 l6 -124 102 -97 c83 -79 249
-226 304 -270 16 -13 15 -31 -1 -54 -13 -17 -16 -16 -57 21 l-43 39 -116 1
c-248 3 -251 3 -251 18 0 11 23 14 111 15 61 0 115 3 120 6 5 4 9 2 9 -4 0 -6
7 -8 15 -5 8 4 15 2 15 -3 0 -5 17 -10 38 -11 l37 -3 -70 68 c-124 120 -191
173 -202 162 -8 -8 -13 -5 -18 11 -8 25 -42 40 -90 40 -42 0 -46 -6 -35 -56
19 -87 25 -194 17 -300 -3 -33 -2 -66 2 -73 5 -8 74 -12 242 -14 261 -2 257
-1 223 -72 -16 -35 -17 -35 -36 -18 -19 17 -62 19 -572 26 -830 11 -1156 13
-1156 7 0 -3 25 -32 56 -65 31 -33 89 -100 130 -150 40 -49 113 -132 162 -183
l88 -93 602 3 c579 3 602 3 602 -15 0 -10 -5 -27 -11 -39 -10 -19 -19 -20
-132 -18 -159 4 -187 2 -187 -10 0 -6 5 -9 11 -8 18 4 21 -18 5 -35 -25 -25
-31 -68 -12 -82 14 -11 15 -14 1 -25 -16 -13 -22 -124 -7 -147 8 -13 196 -20
225 -8 14 6 17 2 17 -24 l0 -30 -82 5 c-46 3 -97 6 -114 9 -17 2 -36 0 -43 -5
-19 -11 -20 -108 -1 -120 8 -5 61 -8 118 -7 91 2 102 0 102 -15 0 -10 -3 -18
-7 -18 -158 -8 -328 -9 -713 -7 -121 1 -220 -2 -220 -6 0 -10 32 -60 45 -70 5
-4 116 -6 246 -3 140 3 262 1 300 -5 54 -9 65 -8 75 5 15 21 37 20 65 -3 22
-18 23 -25 22 -119 -2 -122 8 -137 91 -137 49 0 51 -1 54 -29 5 -42 -7 -47
-74 -35 -129 23 -131 24 -154 87 -24 65 -64 137 -83 149 -6 4 -192 9 -412 10
-361 3 -538 10 -548 23 -62 82 -71 90 -109 101 -26 7 -151 10 -347 9 -420 -3
-595 -1 -589 5 3 3 101 8 218 10 117 3 249 9 294 14 44 5 122 10 171 10 50 0
117 3 150 6 33 3 122 2 199 -2 99 -6 150 -5 179 4 47 14 46 14 49 -18 2 -19
-1 -23 -17 -20 -11 2 -58 5 -105 6 -138 5 -171 -24 -69 -59 61 -21 339 -37
339 -19 0 6 -26 34 -57 62 -32 29 -89 83 -128 120 -140 135 -272 251 -298 260
-38 15 -258 16 -285 2 -12 -6 -22 -15 -22 -20 0 -4 35 -44 78 -88 76 -79 122
-146 110 -159 -4 -3 -12 -3 -18 1 -17 10 -170 206 -170 216 0 5 -8 9 -18 9
-30 0 -134 39 -155 58 -32 29 -59 92 -53 123 8 43 52 107 85 124 40 20 80 19
148 -5 52 -18 83 -20 320 -20 145 0 263 2 263 5 0 3 -30 34 -67 70 -38 35
-129 136 -203 223 -74 88 -146 166 -160 172 -17 9 -65 12 -150 9 -228 -5 -236
-3 -208 53 14 27 17 29 17 12 1 -32 22 -35 124 -23 116 13 978 12 1014 -2 80
-30 12 37 -206 203 -207 158 -422 331 -451 363 -46 50 -81 68 -158 80 -61 10
-82 9 -116 -3 -27 -9 -62 -12 -101 -9 -51 5 -64 10 -87 36 -24 27 -28 40 -28
95 0 72 17 103 74 130 46 22 84 20 130 -7 47 -27 76 -77 76 -134 l0 -43 60 0
c76 0 100 -11 185 -85 39 -34 138 -114 220 -179 83 -65 177 -139 210 -166 207
-166 279 -222 305 -235 23 -12 70 -15 226 -15 l196 0 -8 23 c-4 12 -9 98 -11
192 -2 118 -7 173 -16 182 -13 14 -97 32 -156 35 l-36 1 33 4 c17 2 32 7 32
11 0 24 -72 102 -354 386 -368 369 -302 331 -585 342 l-166 6 -140 143 c-115
117 -151 148 -200 170 -80 36 -101 57 -115 116 -18 74 -7 114 42 149 49 36
102 39 164 11z m1204 -76 c0 -7 -6 -18 -14 -24 -17 -14 -30 11 -20 41 4 15 9
17 20 7 8 -6 14 -17 14 -24z m8465 0 c0 -10 -6 -20 -12 -22 -8 -3 -13 5 -13
22 0 17 5 25 13 23 6 -3 12 -13 12 -23z m-9025 -1 c0 -14 -3 -14 -15 -4 -8 7
-15 14 -15 16 0 2 7 4 15 4 8 0 15 -7 15 -16z m357 10 c-9 -10 -216 -11 -210
-1 2 4 52 7 110 7 59 0 103 -3 100 -6z m54 -5 c-16 -6 -28 -6 -35 1 -7 7 1 10
25 9 32 0 33 -1 10 -10z m334 1 c-3 -5 -21 -10 -40 -10 -19 0 -37 5 -40 10 -4
6 12 10 40 10 28 0 44 -4 40 -10z m145 -3 c0 -19 -10 -27 -26 -20 -21 8 -17
33 6 33 11 0 20 -6 20 -13z m246 6 c-11 -12 -196 -14 -196 -3 0 6 40 10 102
10 56 0 98 -3 94 -7z m6789 -3 c3 -5 1 -10 -4 -10 -6 0 -11 5 -11 10 0 6 2 10
4 10 3 0 8 -4 11 -10z m95 0 c-20 -13 -67 -13 -75 0 -4 6 12 10 42 10 35 0 44
-3 33 -10z m120 0 c0 -5 -2 -10 -4 -10 -3 0 -8 5 -11 10 -3 6 -1 10 4 10 6 0
11 -4 11 -10z m390 0 c0 -7 -22 -9 -61 -6 -84 7 -87 16 -6 16 40 0 67 -4 67
-10z m37 4 c-3 -3 -12 -4 -19 -1 -8 3 -5 6 6 6 11 1 17 -2 13 -5z m852 2 c-10
-9 -319 -15 -314 -6 4 6 72 10 162 10 86 0 154 -2 152 -4z m131 -10 c0 -8 -4
-18 -10 -21 -5 -3 -10 3 -10 14 0 12 5 21 10 21 6 0 10 -6 10 -14z m303 6 c-6
-4 -72 -8 -145 -9 -82 0 -120 2 -98 7 46 10 258 12 243 2z m44 2 c-3 -3 -12
-4 -19 -1 -8 3 -5 6 6 6 11 1 17 -2 13 -5z m-9332 -690 c11 -8 10 -12 -6 -22
-11 -7 -19 -23 -19 -39 0 -14 -2 -24 -5 -21 -10 10 -15 312 -8 503 l8 200 8
-305 c6 -239 11 -307 22 -316z m8972 359 c-2 -32 -3 -8 -3 52 0 61 1 87 3 58
2 -29 2 -78 0 -110z m-522 -142 c3 -5 1 -12 -5 -16 -5 -3 -10 1 -10 9 0 18 6
21 15 7z m-8121 -73 c0 -42 -12 -88 -23 -88 -10 0 -13 53 -5 103 7 47 28 35
28 -15z m8126 22 c0 -5 -4 -10 -10 -10 -5 0 -10 5 -10 10 0 6 5 10 10 10 6 0
10 -4 10 -10z m-9020 -150 c0 -5 -4 -10 -10 -10 -5 0 -10 5 -10 10 0 6 5 10
10 10 6 0 10 -4 10 -10z m9537 -22 c-3 -7 -5 -2 -5 12 0 14 2 19 5 13 2 -7 2
-19 0 -25z m-1563 -12 c52 -8 55 -13 15 -24 -38 -10 -69 1 -69 24 0 8 3 13 8
11 4 -3 25 -8 46 -11z m-6314 -11 c0 -9 -6 -12 -15 -9 -8 4 -12 10 -9 15 8 14
24 10 24 -6z m8638 -115 c35 -22 68 -69 77 -112 9 -38 -38 -122 -83 -150 -31
-19 -37 -20 -75 -8 -56 18 -281 14 -316 -5 -15 -8 -48 -35 -76 -60 -27 -26
-193 -162 -369 -303 -175 -141 -329 -266 -343 -277 -20 -17 -44 -21 -140 -25
l-116 -5 2 -202 c1 -124 -1 -203 -7 -203 -5 0 -17 22 -26 49 -17 54 -22 233
-7 308 6 33 5 43 -6 47 -27 11 -424 6 -444 -4 -11 -6 -33 -35 -50 -65 -17 -30
-32 -55 -34 -55 -2 0 -11 7 -19 16 -28 27 -20 78 20 126 20 23 41 46 48 50 6
4 118 8 249 8 l238 0 -6 155 c-3 85 -3 160 1 167 4 6 8 45 10 86 2 41 5 76 7
79 10 9 34 -55 26 -68 -9 -15 -11 -392 -2 -415 6 -17 129 -19 181 -5 18 6 57
32 87 59 30 27 105 90 166 138 62 49 146 117 188 151 42 35 112 91 155 125 44
33 112 90 153 126 85 74 131 92 238 92 l72 0 6 56 c6 61 14 74 71 116 46 33
79 35 124 8z m-11337 -49 c22 -22 29 -39 29 -68 0 -75 -55 -138 -104 -120 -23
9 -21 47 2 47 37 0 71 65 57 109 -4 14 -15 21 -30 21 -36 0 -55 -26 -55 -76 0
-31 -4 -43 -11 -38 -7 4 -10 27 -7 60 8 92 62 122 119 65z m11704 -46 c7 -76
0 -155 -14 -155 -15 0 -28 45 -20 70 4 14 7 40 8 58 1 26 -3 32 -19 32 -25 0
-26 26 -3 52 30 34 40 22 48 -57z m-10065 -333 c33 -10 32 -10 -22 -11 -47 -1
-58 2 -58 15 0 17 2 17 80 -4z m7686 -3 c3 -6 2 -15 -3 -20 -5 -5 -14 0 -21
11 -10 17 -10 20 2 20 8 0 18 -5 22 -11z m-6921 -9 c17 -4 -26 -5 -95 -2 -69
2 -127 6 -129 8 -8 7 194 2 224 -6z m7345 -9 c0 -5 -7 -14 -15 -21 -18 -15
-42 1 -31 19 8 13 46 15 46 2z m-7690 -72 c0 -6 -4 -7 -10 -4 -5 3 -10 11 -10
16 0 6 5 7 10 4 6 -3 10 -11 10 -16z m-600 -64 c8 -34 21 -60 32 -66 10 -5 18
-15 18 -21 0 -19 -61 44 -76 78 -13 30 -9 78 5 69 4 -2 14 -29 21 -60z m116
-107 c34 1 53 -13 37 -29 -11 -11 -86 15 -91 31 -3 8 0 10 8 5 7 -5 28 -8 46
-7z m128 -20 c-7 -12 -44 -10 -44 2 0 5 11 9 24 8 14 -1 22 -6 20 -10z m7934
-2 c3 -3 -20 -6 -52 -6 -33 0 -55 4 -51 9 6 10 93 7 103 -3z m158 2 c4 -5 -1
-8 -12 -9 -10 0 -28 -2 -39 -4 -26 -5 -96 6 -91 14 6 9 133 8 142 -1z m-8049
-4 c-3 -3 -12 -4 -19 -1 -8 3 -5 6 6 6 11 1 17 -2 13 -5z m9687 -100 c15 -40
6 -72 -30 -104 -33 -28 -41 -31 -78 -26 -23 4 -91 9 -153 12 -85 5 -116 3
-131 -7 -24 -17 -364 -384 -414 -447 -21 -26 -38 -52 -38 -58 0 -36 -27 -39
-369 -44 -329 -5 -336 -5 -333 -25 1 -11 3 -72 3 -135 0 -63 2 -126 5 -140 l4
-25 258 3 c141 2 277 0 302 -3 95 -14 7 -24 -269 -30 -156 -3 -288 -8 -292
-11 -13 -8 -11 -102 2 -109 9 -6 411 -19 589 -20 l65 0 3 78 3 77 -26 0 c-15
0 -24 4 -20 10 3 6 14 10 24 10 11 0 22 10 25 23 14 45 23 -14 16 -98 -9 -91
-1 -115 38 -115 27 -1 26 -1 -8 -19 -19 -9 -40 -14 -45 -10 -6 4 -156 9 -334
10 -290 2 -325 1 -336 -14 -10 -14 -14 -14 -26 -2 -11 11 -50 15 -174 16 -164
1 -185 6 -185 41 0 16 5 18 33 14 17 -3 97 -7 177 -8 l145 -3 3 52 c3 43 0 54
-17 62 -20 11 -331 8 -349 -3 -12 -7 -22 16 -22 49 0 21 2 22 38 14 58 -13
316 -11 330 3 14 14 16 119 3 134 -5 5 -5 35 0 69 4 33 10 69 11 80 3 19 -3
20 -222 23 -242 2 -250 4 -250 56 0 21 1 21 565 21 l565 0 17 25 c9 14 32 39
50 55 19 17 117 117 219 222 l185 193 -205 0 c-152 -1 -206 -4 -209 -13 -4 -9
-8 -9 -15 2 -7 10 -34 12 -103 11 -52 -1 -130 -2 -174 -1 -139 4 -49 21 119
24 83 1 154 6 158 11 4 6 12 6 20 0 8 -6 95 -10 223 -9 280 3 415 13 438 33
15 13 17 13 17 0 0 -8 16 -22 36 -32 35 -16 38 -16 73 2 30 16 37 25 39 55 3
39 16 48 26 21z m-4636 -188 c5 -177 -5 -160 112 -176 72 -9 161 -35 212 -60
39 -21 126 -90 132 -106 8 -22 -14 -50 -76 -96 -87 -66 -143 -88 -263 -106
l-110 -17 -1 -595 -1 -595 -54 -27 c-30 -15 -65 -27 -78 -27 l-24 -1 8 618 c6
513 5 620 -7 629 -7 6 -35 14 -63 18 -80 12 -194 66 -267 127 -75 63 -64 99
52 169 43 26 149 60 218 70 37 5 70 13 74 17 4 4 11 70 15 145 3 75 10 137 15
137 4 0 8 -6 8 -13 0 -8 12 -24 27 -38 14 -13 23 -18 19 -11 -4 7 -3 18 2 25
6 7 13 29 17 50 15 76 28 19 33 -137z m-1779 -57 l1 -106 38 -7 c20 -3 49 -6
64 -6 41 0 148 -39 188 -68 59 -42 110 -95 110 -113 0 -49 -205 -164 -314
-177 -36 -5 -68 -10 -70 -13 -2 -2 -6 -555 -8 -1229 -3 -875 -8 -1232 -16
-1250 -10 -23 -11 -22 -11 18 -1 23 -5 42 -11 42 -5 0 -10 11 -10 25 0 35 -24
41 -51 14 -19 -19 -23 -34 -23 -90 -1 -37 -4 -65 -8 -61 -19 19 -28 512 -28
1468 0 582 -4 1045 -9 1048 -5 3 -54 12 -109 21 -122 18 -194 50 -268 118 -78
71 -73 92 36 164 69 45 164 75 262 82 48 3 89 9 92 11 2 3 6 48 7 100 2 100 9
131 20 90 7 -24 7 -24 14 8 7 31 9 32 26 16 18 -16 19 -16 19 -1 0 10 5 17 10
17 6 0 10 8 11 18 0 14 2 14 9 -3 7 -17 9 -14 10 15 l2 35 9 -40 c4 -22 8 -88
8 -146z m5561 -25 c0 -41 -4 -63 -10 -59 -5 3 -10 35 -10 71 0 41 4 63 10 59
6 -3 10 -35 10 -71z m-9531 -71 c-1 -115 -3 -128 -9 -78 -5 33 -7 76 -5 95 1
19 3 54 4 78 1 23 3 42 6 42 3 0 4 -62 4 -137z m883 45 c4 -79 -4 -154 -16
-151 -10 3 -18 177 -9 199 11 30 21 11 25 -48z m-349 -110 c3 -53 1 -102 -4
-109 -5 -8 -9 33 -9 100 0 63 2 112 4 110 3 -2 7 -48 9 -101z m8994 -50 c-3
-7 -5 -2 -5 12 0 14 2 19 5 13 2 -7 2 -19 0 -25z m-767 -13 c0 -19 -4 -35 -9
-35 -5 0 -11 -9 -14 -20 -7 -27 -24 -25 -31 4 -7 27 21 86 42 86 7 0 12 -14
12 -35z m-7890 -27 c0 -16 -3 -19 -11 -11 -6 6 -8 16 -5 22 11 17 16 13 16
-11z m9457 -99 c38 -36 53 -73 53 -128 0 -73 -38 -114 -132 -142 -81 -24 -85
-27 -353 -290 -126 -123 -191 -180 -215 -187 -34 -11 -330 -20 -670 -21 l-165
-1 2 -402 c2 -395 5 -430 34 -412 4 2 190 4 413 4 224 1 414 4 422 7 8 3 51
50 95 104 44 55 93 106 109 114 19 10 59 15 117 15 l88 0 17 40 c28 67 123 99
187 63 31 -18 64 -68 74 -113 7 -30 -26 -94 -64 -122 -18 -14 -43 -20 -83 -20
-54 -1 -60 2 -100 41 -42 41 -42 41 -118 41 l-76 0 -98 -106 c-54 -58 -109
-111 -123 -118 -20 -11 -164 -15 -644 -19 -672 -5 -644 -7 -619 49 l12 24 163
0 c90 0 167 3 170 7 4 3 1 13 -5 21 -9 10 -14 74 -16 200 -2 103 -4 188 -6
189 -1 2 -66 3 -144 4 l-142 0 0 25 c0 22 3 24 38 19 91 -14 238 -21 247 -13
6 5 12 80 15 166 3 86 9 163 13 170 11 17 -37 34 -87 30 -37 -3 -43 -8 -84
-68 -25 -36 -62 -94 -82 -130 -44 -77 -64 -83 -68 -22 -3 39 4 54 75 163 42
67 85 125 95 130 9 5 65 9 125 8 59 0 280 -1 490 -2 l381 -2 69 66 c165 160
272 260 331 309 61 51 77 82 47 94 -11 4 -15 23 -15 79 0 60 4 79 21 101 52
67 153 84 206 35z m-264 -35 c9 -3 17 -9 17 -13 0 -5 -129 -6 -275 -2 -22 0
-66 0 -97 -2 -33 -1 -54 1 -51 7 4 5 1 6 -6 2 -6 -4 -21 -4 -34 1 -18 6 -11 9
33 14 66 8 389 3 413 -7z m-534 -206 c-1 -86 -2 -89 -10 -43 -8 44 -3 135 7
135 2 0 3 -42 3 -92z m-940 22 c114 -3 166 -9 168 -17 3 -8 -38 -13 -154 -16
-87 -2 -167 -6 -178 -8 -16 -3 -21 2 -23 30 -3 25 0 31 10 25 7 -5 87 -11 177
-14z m-7421 -6 c-2 -8 -6 -15 -10 -15 -5 1 -57 1 -118 1 -146 0 -144 18 3 23
61 1 116 4 120 5 5 1 7 -5 5 -14z m8001 -10 c2 -2 -46 -4 -108 -4 -62 0 -110
4 -107 8 5 8 207 4 215 -4z m602 6 c-20 -5 -56 -30 -90 -62 -70 -68 -109 -98
-129 -98 -18 0 99 123 143 151 18 11 47 19 70 18 l40 -1 -34 -8z m-124 -366
c-3 -3 -12 -4 -19 -1 -8 3 -5 6 6 6 11 1 17 -2 13 -5z m40 0 c-3 -3 -12 -4
-19 -1 -8 3 -5 6 6 6 11 1 17 -2 13 -5z m680 -20 c0 -12 -14 -15 -61 -13 -34
1 -69 6 -80 11 -12 7 -22 6 -29 -1 -16 -16 -178 -15 -174 2 1 8 39 13 132 17
165 6 212 3 212 -16z m-1850 -81 c4 -11 -26 -27 -35 -19 -2 3 -2 12 2 21 6 18
27 16 33 -2z m-9628 -39 c2 -2 -1 -14 -8 -27 -10 -18 -8 -29 8 -62 21 -42 16
-59 -15 -53 -13 2 -20 13 -22 33 -2 17 -10 44 -19 62 -14 26 -15 34 -3 47 11
14 43 14 59 0z m163 -43 c12 -80 -19 -129 -62 -101 -13 8 -12 12 8 25 38 27
27 115 -15 115 -7 0 -13 -7 -13 -16 0 -8 5 -12 10 -9 6 3 10 -1 10 -10 0 -9
-4 -13 -10 -10 -6 4 -10 -9 -10 -30 0 -58 -24 -38 -28 23 -3 50 -2 51 30 61
61 18 72 12 80 -48z m11574 47 c4 -6 8 -33 9 -59 1 -26 7 -55 14 -63 15 -18 8
-46 -12 -46 -34 0 -49 26 -52 91 -2 60 6 89 26 89 4 0 11 -5 15 -12z m-116
-34 c0 -27 -3 -28 -31 -14 -21 12 -25 36 -6 43 22 7 37 -4 37 -29z m-9962
-289 c5 -55 5 -113 1 -130 -4 -16 -7 -103 -6 -193 2 -124 -1 -162 -10 -162
-16 0 -15 -25 -19 365 -5 444 3 474 34 120z m9958 238 c3 -10 10 -26 15 -35
13 -25 12 -28 -15 -28 -27 0 -41 27 -31 60 8 25 24 26 31 3z m-8436 -343 c32
-302 72 -481 173 -776 126 -366 361 -781 613 -1077 116 -138 386 -409 465
-468 25 -19 82 -61 126 -94 44 -33 119 -85 167 -115 288 -181 496 -392 496
-502 0 -21 -4 -38 -9 -38 -37 0 -522 291 -701 421 -296 213 -420 325 -674 604
-316 345 -542 789 -630 1235 -52 266 -58 341 -62 755 -3 412 -1 414 36 55z
m7459 -60 c0 -220 -3 -330 -9 -320 -6 9 -9 153 -9 360 1 190 5 334 9 320 4
-14 8 -176 9 -360z m-9529 65 c2 -404 2 -394 -13 -370 -9 15 -12 103 -12 325
0 269 5 353 20 339 2 -3 4 -135 5 -294z m7544 -220 c-17 -484 -101 -837 -294
-1230 -112 -226 -218 -387 -391 -590 -280 -329 -568 -556 -1156 -913 -117 -71
-223 -123 -235 -116 -42 26 84 226 213 336 30 25 128 97 219 158 263 179 411
299 596 484 284 285 489 568 661 913 92 185 204 461 237 584 8 30 26 97 40
150 36 133 65 314 71 439 3 58 9 134 12 170 7 63 7 60 20 -80 8 -88 11 -207 7
-305z m-6665 301 c9 -10 8 -15 -4 -20 -10 -4 -15 1 -15 14 0 24 4 25 19 6z
m179 -75 c3 -22 2 -22 -45 -14 -26 4 -66 7 -88 6 -22 -1 -60 1 -85 4 -42 5
-43 6 -21 17 14 8 61 12 129 11 103 -1 107 -2 110 -24z m-348 -1 c0 -5 -13
-10 -30 -10 -16 0 -30 5 -30 10 0 6 14 10 30 10 17 0 30 -4 30 -10z m77 4 c-3
-3 -12 -4 -19 -1 -8 3 -5 6 6 6 11 1 17 -2 13 -5z m80 -59 c-4 -8 -3 -17 2
-19 4 -3 8 -22 9 -42 1 -20 4 -45 7 -54 3 -10 1 -21 -5 -25 -5 -3 -10 -11 -10
-17 0 -7 6 -6 15 2 18 15 19 9 3 -25 -7 -15 -17 -24 -25 -21 -7 3 -13 1 -13
-4 0 -6 -4 -10 -9 -10 -10 0 -8 101 3 118 3 5 1 12 -6 14 -8 3 -7 8 4 18 8 8
13 22 10 32 -5 19 3 48 14 48 3 0 4 -7 1 -15z m-1539 -33 c20 -9 49 -36 65
-59 l28 -43 105 0 c70 0 114 -5 132 -14 15 -8 67 -57 116 -110 97 -106 133
-131 178 -122 16 3 275 6 576 6 507 1 548 -1 559 -17 7 -9 13 -26 13 -38 l0
-21 -567 3 c-313 2 -591 4 -620 3 -61 0 -94 24 -194 140 -35 40 -78 79 -96 86
-19 9 -69 14 -124 14 l-92 0 -32 -37 c-31 -36 -35 -38 -107 -41 -72 -4 -76 -3
-102 24 -42 45 -52 94 -32 148 16 40 57 83 96 99 19 8 53 0 98 -21z m1732
-128 c13 -34 13 -34 -9 -34 -25 0 -32 11 -24 38 7 29 21 28 33 -4z m-198 -86
c-15 -15 -26 -4 -18 18 5 13 9 15 18 6 9 -9 9 -15 0 -24z m21 -59 c3 -12 0
-22 -8 -25 -20 -8 -35 4 -35 27 0 26 36 25 43 -2z m217 -202 c0 -21 -4 -22
-107 -22 l-108 0 0 -70 0 -70 85 -5 c49 -3 98 0 116 6 29 10 33 9 38 -10 14
-51 15 -51 -114 -48 l-119 3 -7 -25 c-15 -59 -11 -61 136 -61 l134 0 7 -25
c13 -47 12 -49 -26 -39 -19 5 -83 8 -142 7 l-108 -3 2 -73 c1 -41 6 -79 12
-85 5 -7 14 -31 20 -54 l11 -42 115 -3 c62 -2 131 0 152 4 44 7 67 -9 79 -56
7 -28 6 -29 -22 -22 -43 11 -306 8 -317 -3 -15 -15 -18 -64 -4 -73 14 -10 303
1 333 12 26 10 50 -4 69 -40 24 -46 18 -54 -20 -30 -27 17 -45 21 -78 16 -23
-3 -56 -5 -73 -5 -48 -1 -64 -20 -70 -81 -5 -64 2 -95 19 -82 7 6 72 13 145
17 l134 7 -7 26 c-5 19 3 13 31 -24 46 -60 114 -164 114 -175 0 -10 -92 -65
-220 -133 -241 -127 -486 -246 -501 -244 -16 3 -16 6 2 44 17 35 24 40 54 41
38 1 152 51 200 87 16 13 37 25 45 29 28 10 -55 7 -90 -4 -48 -15 -893 -15
-898 0 -2 6 -8 11 -13 11 -6 0 -7 -4 -4 -10 4 -6 -12 -9 -42 -8 -41 1 -43 2
-13 5 l35 5 -30 13 -30 12 35 7 c19 3 244 7 500 9 539 3 486 -7 614 119 53 52
100 88 134 103 28 13 52 26 52 29 0 15 -253 -12 -282 -30 -6 -4 -47 -10 -92
-15 -63 -6 -85 -13 -98 -29 -20 -25 -24 -25 -31 1 -5 20 -10 21 -224 17 -255
-3 -246 -6 -352 112 -34 39 -74 78 -87 87 -21 13 -78 16 -406 18 l-382 3 -41
-44 c-41 -43 -42 -44 -107 -44 -73 0 -79 3 -128 76 l-31 44 20 39 c11 21 34
53 51 70 27 26 39 31 82 31 60 0 116 -28 140 -70 l17 -30 223 0 c123 0 228 4
235 8 8 5 -15 31 -69 77 -236 201 -373 315 -380 315 -5 0 -21 -9 -36 -20 -40
-29 -147 -38 -191 -16 -57 30 -79 128 -44 193 23 42 79 83 113 83 44 0 119
-31 140 -57 11 -14 20 -38 20 -52 0 -25 30 -70 48 -72 4 0 115 -2 247 -3 196
-1 243 1 257 12 13 11 21 12 31 4 8 -7 96 -11 256 -12 208 0 244 2 258 16 11
11 19 12 26 5 7 -7 66 -11 153 -11 161 0 175 5 148 59 l-15 31 -139 0 c-122 0
-140 -2 -149 -17 -9 -17 -10 -17 -23 -1 -12 16 -41 19 -257 24 -240 5 -243 5
-258 -16 -13 -19 -16 -19 -26 -6 -14 18 -105 38 -113 25 -3 -5 -9 -7 -13 -5
-4 3 -56 6 -115 7 -174 4 -132 19 53 19 163 0 170 1 185 22 12 17 17 18 21 7
4 -11 51 -14 261 -16 221 -2 256 -1 261 13 5 13 8 13 22 0 12 -10 50 -15 146
-17 72 -2 135 0 142 4 7 4 11 34 10 80 l-2 72 -55 3 c-30 1 -102 -1 -160 -6
-60 -5 -115 -5 -129 0 -13 5 -119 11 -235 13 -116 2 -213 5 -216 6 -19 8 131
15 325 17 283 3 709 13 714 18 9 8 21 -9 21 -29z m8100 17 c189 -2 367 -6 395
-10 l50 -7 -55 -11 -55 -11 -3 -74 c-2 -41 1 -78 5 -82 5 -5 83 -9 174 -10
204 -1 290 -16 119 -20 -63 -1 -152 -3 -198 -3 -62 -1 -85 -5 -92 -16 -11 -18
-13 -90 -2 -90 110 -3 338 1 439 6 l131 7 14 56 c12 52 16 58 63 83 28 15 60
28 73 28 74 1 161 -104 147 -177 -7 -41 -63 -106 -105 -123 -34 -14 -68 -4
-130 37 -31 21 -46 23 -153 23 -71 0 -127 -5 -140 -12 -12 -6 -97 -81 -189
-166 -139 -128 -168 -159 -168 -182 0 -26 3 -28 59 -34 32 -4 166 -6 297 -5
l239 1 22 33 c22 33 94 75 130 75 32 0 97 -53 122 -102 l24 -45 -24 -43 c-35
-64 -67 -83 -134 -83 -54 0 -59 2 -103 46 l-47 46 -330 -5 c-181 -2 -338 -4
-348 -4 -10 0 -58 -37 -105 -83 -140 -134 -124 -127 -310 -127 l-159 0 -6 -87
c-3 -47 -4 -90 -1 -95 7 -11 61 -10 83 2 10 5 24 22 30 37 11 26 70 77 79 68
6 -6 -58 -95 -68 -95 -6 0 -10 -7 -10 -15 0 -13 29 -15 193 -16 105 -1 199 -2
207 -3 8 -2 34 -3 58 -4 28 -1 41 -6 37 -13 -4 -6 -14 -8 -22 -5 -10 4 -13 2
-10 -8 5 -13 -37 -15 -286 -20 -161 -2 -299 -6 -307 -7 -31 -4 -258 11 -323
22 -38 6 -71 9 -73 6 -10 -9 51 -44 149 -86 54 -23 121 -58 148 -79 28 -20 53
-37 57 -37 4 0 10 31 13 68 5 65 20 99 36 83 4 -4 8 -45 10 -91 1 -58 7 -92
19 -110 22 -34 8 -32 -56 10 -30 19 -61 35 -67 35 -14 0 -209 100 -314 161
-36 21 -99 54 -140 73 -41 19 -101 51 -134 70 -33 20 -75 42 -92 51 -18 8 -33
18 -33 21 0 4 12 21 28 39 15 18 44 60 65 95 29 49 41 60 55 55 9 -4 64 -11
122 -16 58 -5 123 -11 144 -15 35 -6 38 -4 31 12 -4 11 -9 39 -12 64 -4 42 -3
44 11 26 9 -11 16 -24 16 -29 0 -18 51 -77 79 -92 18 -9 66 -15 130 -17 l102
-3 2 85 2 85 -177 2 c-102 1 -185 6 -197 12 -24 13 -125 14 -169 2 -29 -9 -32
-8 -32 13 0 21 41 71 51 62 11 -11 344 -24 350 -14 4 6 17 5 35 -5 24 -12 130
-14 142 -3 1 2 3 20 5 42 l2 39 -63 3 c-68 3 -92 -7 -92 -40 0 -11 -5 -18 -12
-15 -7 2 -13 16 -13 32 -1 17 -7 31 -17 34 -33 12 -282 -4 -305 -19 -33 -22
-39 -5 -15 45 l21 44 53 -4 c29 -3 102 -7 161 -9 105 -5 110 -4 133 19 13 13
24 29 24 35 0 5 5 10 11 10 6 0 26 12 45 26 38 29 58 79 52 134 l-3 35 -175
-3 c-96 -2 -185 -6 -197 -9 -18 -4 -23 -1 -23 15 0 12 4 32 10 46 8 21 13 24
32 18 13 -5 100 -8 193 -8 l170 1 -2 39 c-2 22 -7 42 -12 45 -15 9 -324 6
-345 -4 -17 -8 -19 -5 -12 26 9 47 19 54 58 43 18 -5 96 -9 173 -9 l140 2 3
71 3 72 -43 1 c-24 0 -56 2 -73 3 -16 1 -74 3 -127 4 -88 2 -98 4 -98 20 0 18
10 19 193 14 105 -3 347 -7 537 -8z m-9192 -17 c4 -12 2 -21 -7 -35 -7 -11
-14 -11 -42 4 -32 16 -76 21 -212 23 -32 1 -56 4 -54 9 6 9 311 8 315 -1z
m9772 4 l45 -8 -62 -2 c-34 0 -65 4 -68 9 -7 12 21 12 85 1z m-103 -7 c-3 -3
-12 -4 -19 -1 -8 3 -5 6 6 6 11 1 17 -2 13 -5z m-10680 -276 c16 -13 24 -75
15 -123 -7 -37 -10 -41 -49 -49 -67 -14 -77 1 -69 98 3 47 11 83 18 88 15 9
67 1 85 -14z m-182 -72 c8 -91 3 -115 -21 -95 -20 17 -20 179 0 179 11 0 16
-22 21 -84z m11805 -16 c0 -55 -4 -100 -9 -100 -32 0 -41 14 -41 66 0 29 -5
64 -11 78 -15 31 2 56 37 56 24 0 24 -1 24 -100z m-11549 -463 c-10 -9 -11 -8
-5 6 3 10 9 15 12 12 3 -3 0 -11 -7 -18z m-52 -3 c2 -2 -25 -4 -62 -4 -37 0
-69 5 -73 11 -4 8 14 9 62 4 38 -4 71 -9 73 -11z m981 -266 c-1 -86 -3 -109
-11 -94 -7 11 -9 52 -5 110 6 107 5 96 11 96 3 0 5 -51 5 -112z m8 -191 c7
-33 -5 -49 -28 -37 -20 11 -27 40 -13 54 12 12 38 1 41 -17z m9523 -129 c1
-79 3 -169 5 -200 2 -32 0 -74 -4 -95 -7 -32 -9 -21 -15 67 -6 88 -11 315 -8
358 1 6 6 12 11 12 6 0 10 -55 11 -142z m-7741 53 l65 -59 6 -158 c4 -88 16
-215 28 -284 11 -69 28 -179 36 -245 14 -106 69 -441 164 -1003 38 -222 55
-365 47 -398 -7 -24 -10 -26 -48 -21 -59 8 -163 64 -204 110 -57 63 -91 150
-134 338 -39 175 -80 458 -80 552 0 52 -27 342 -36 385 -7 35 -26 15 -73 -82
-58 -118 -115 -279 -156 -439 -43 -169 -61 -284 -75 -486 -6 -85 -13 -158 -16
-163 -3 -4 -27 -8 -54 -8 -40 0 -55 5 -82 29 -36 32 -43 45 -152 274 -65 138
-83 166 -135 217 -117 115 -215 115 -456 -1 -136 -65 -155 -81 -155 -129 0
-22 4 -61 10 -87 13 -64 70 -504 70 -542 l0 -31 -163 0 c-116 0 -168 4 -179
13 -12 9 -59 147 -94 275 -2 6 -7 12 -12 12 -5 0 -12 -64 -16 -142 -4 -78 -9
-145 -12 -150 -7 -10 -401 -11 -408 0 -2 4 -6 113 -7 242 -3 197 0 248 15 315
63 282 142 442 290 588 193 190 615 446 1321 803 409 207 580 297 605 320 8 8
17 14 20 14 3 0 34 -27 70 -59z m6088 36 c20 -13 129 -71 242 -129 285 -146
814 -435 995 -543 39 -23 111 -65 160 -95 152 -90 396 -255 469 -317 168 -141
286 -360 333 -618 15 -83 18 -141 15 -332 l-3 -233 -205 0 c-154 0 -206 3
-209 12 -3 7 -8 71 -12 143 -5 72 -12 130 -17 130 -5 0 -20 -46 -32 -101 -29
-131 -47 -172 -76 -179 -13 -3 -88 -4 -168 -3 l-145 3 3 75 c4 83 9 133 47
425 l26 200 -23 19 c-26 22 -199 105 -273 132 -68 24 -166 22 -230 -6 -92 -39
-160 -123 -234 -290 -106 -241 -136 -282 -212 -295 -58 -10 -65 2 -72 127 -18
293 -83 562 -206 850 -66 155 -119 253 -136 250 -6 -1 -13 -86 -17 -214 -13
-391 -40 -621 -97 -846 -33 -127 -63 -186 -127 -248 -63 -60 -187 -128 -225
-122 -23 3 -24 6 -21 63 1 33 11 107 22 165 11 58 31 177 45 265 14 88 32 196
40 240 8 44 24 148 35 230 11 83 30 204 40 270 18 111 28 180 66 450 23 169
32 246 39 339 l7 90 56 58 c30 32 57 58 59 58 2 0 20 -10 41 -23z m-7879 -124
c-1 -49 -4 -67 -8 -49 -6 29 -2 126 5 126 2 0 3 -35 3 -77z m-2 -105 c-3 -8
-6 -5 -6 6 -1 11 2 17 5 13 3 -3 4 -12 1 -19z m548 -85 c-24 -17 -35 -17 -35
0 0 20 9 25 32 19 20 -5 20 -6 3 -19z m-1251 -52 c22 -6 54 -25 75 -45 l37
-36 462 0 c281 0 462 -4 462 -9 0 -6 -37 -21 -83 -35 -72 -22 -172 -32 -247
-26 -64 6 -496 10 -536 5 -47 -6 -53 -9 -68 -43 -50 -110 -213 -116 -267 -10
-10 21 -19 47 -19 58 0 28 33 90 62 116 38 35 59 39 122 25z m11079 -10 c35
-13 71 -91 62 -133 -4 -18 -13 -43 -21 -56 -21 -33 -93 -82 -121 -82 -43 0
-101 38 -123 79 -11 22 -25 43 -30 46 -6 4 -188 8 -403 10 -338 2 -398 5 -438
19 -26 10 -54 25 -62 34 -15 16 14 17 451 17 l467 0 37 38 c34 35 40 37 96 37
34 0 72 -4 85 -9z m-10367 -200 c-7 -11 -36 -16 -36 -6 0 3 6 12 13 20 13 15
33 3 23 -14z m3804 -839 c136 -108 199 -171 209 -211 18 -68 24 -177 11 -215
-24 -73 -110 -101 -165 -53 -21 18 -29 40 -45 127 -36 187 -70 271 -175 435
-25 38 -45 73 -45 78 0 5 28 -14 63 -43 34 -28 100 -81 147 -118z m2116 75
c-61 -95 -126 -221 -145 -282 -6 -22 -20 -85 -30 -140 -17 -87 -23 -103 -50
-127 -64 -57 -151 -27 -167 58 -11 59 11 232 33 256 10 11 68 58 128 104 61
46 148 114 195 152 47 38 86 68 88 67 2 -2 -22 -41 -52 -88z"/>
<path d="M7479 11649 c-15 -30 -5 -100 18 -117 16 -11 20 -10 36 9 14 18 17
32 11 63 -10 66 -42 87 -65 45z"/>
<path d="M4385 11335 c-48 -47 -24 -125 38 -125 34 0 71 50 62 82 -9 29 -45
68 -62 68 -8 0 -25 -11 -38 -25z"/>
<path d="M5443 11349 c-28 -10 -43 -39 -43 -82 0 -41 17 -58 61 -59 73 -2 84
107 14 144 -5 3 -20 2 -32 -3z"/>
<path d="M6405 11328 c-63 -74 20 -160 89 -92 34 35 33 59 -6 95 -41 37 -50
36 -83 -3z"/>
<path d="M6877 11332 c-43 -26 -46 -60 -8 -94 39 -35 61 -35 95 -2 31 32 33
53 5 88 -23 30 -51 32 -92 8z"/>
<path d="M7796 11319 c-14 -17 -26 -37 -26 -46 0 -17 53 -73 69 -73 19 0 81
62 81 81 0 24 -49 69 -77 69 -11 0 -33 -14 -47 -31z"/>
<path d="M8297 11333 c-28 -31 -30 -66 -7 -96 55 -70 146 18 94 91 -19 27 -64
29 -87 5z"/>
<path d="M9011 11343 c-32 -27 -39 -85 -12 -112 28 -28 53 -27 90 5 39 33 39
58 0 95 -36 34 -49 36 -78 12z"/>
<path d="M9565 10844 c-30 -33 -32 -63 -4 -98 27 -34 54 -33 90 3 40 40 38 74
-5 100 -43 27 -52 26 -81 -5z"/>
<path d="M3911 11334 c-23 -26 -41 -52 -41 -58 0 -7 20 -32 46 -55 l45 -44 45
46 45 46 -16 36 c-15 37 -51 74 -72 75 -6 0 -30 -21 -52 -46z"/>
<path d="M1814 11333 c-19 -21 -24 -36 -22 -66 6 -81 94 -103 124 -32 20 49
18 72 -11 100 -31 32 -60 32 -91 -2z"/>
<path d="M1245 11348 c-28 -16 -54 -50 -55 -70 0 -24 73 -98 97 -98 11 0 23 8
26 18 4 9 16 29 28 43 23 30 21 51 -12 93 -22 28 -52 33 -84 14z"/>
<path d="M10795 11335 c-31 -30 -32 -67 -4 -111 30 -49 58 -49 106 2 41 41 41
64 2 103 -37 38 -71 40 -104 6z"/>
<path d="M3088 10850 c-24 -18 -28 -29 -28 -70 0 -40 4 -50 25 -64 25 -17 82
-21 101 -8 23 16 44 58 44 87 0 46 -20 66 -71 72 -35 4 -50 1 -71 -17z"/>
<path d="M4850 10850 c-52 -52 -25 -126 46 -124 44 2 64 23 64 69 0 37 -35 75
-68 75 -12 0 -31 -9 -42 -20z"/>
<path d="M8655 10834 c-45 -48 -23 -107 46 -129 24 -8 62 15 85 50 14 21 14
30 4 55 -24 57 -93 69 -135 24z"/>
<path d="M3492 10845 c-26 -22 -32 -34 -32 -66 0 -105 137 -104 155 1 5 29 2
39 -17 57 -38 36 -70 38 -106 8z"/>
<path d="M126 8526 c-32 -31 -34 -74 -5 -110 28 -35 55 -33 95 10 40 42 42 63
12 92 -38 35 -73 38 -102 8z"/>
<path d="M6069 9798 c-30 -31 -130 -243 -168 -353 -79 -235 -101 -409 -117
-945 -6 -193 -5 -204 11 -189 13 13 14 21 7 35 -9 17 -8 68 2 159 3 28 7 70
21 275 3 41 8 131 10 200 5 142 11 189 31 235 7 18 11 35 8 38 -3 3 -1 15 6
26 8 16 8 21 -2 21 -7 0 -6 5 4 13 16 12 42 87 33 95 -2 2 7 22 21 43 14 22
22 43 20 48 -3 4 4 25 14 47 11 21 20 47 20 57 0 10 4 16 9 12 6 -3 13 11 17
31 3 19 13 38 20 41 8 3 14 11 14 19 0 8 7 14 15 14 8 0 15 5 15 11 0 13 35 7
36 -6 2 -20 29 -75 36 -75 10 0 85 -158 93 -196 4 -16 16 -49 28 -74 11 -25
21 -65 23 -90 3 -53 11 -101 24 -150 24 -91 50 -362 57 -603 5 -171 10 -232
20 -245 12 -15 13 6 8 148 -18 459 -50 766 -97 910 -64 199 -184 470 -208 470
-5 0 -19 -10 -31 -22z"/>
<path d="M4683 8438 c-64 -47 -335 -271 -400 -331 -171 -157 -314 -317 -392
-437 -19 -30 -42 -64 -52 -75 -9 -11 -29 -42 -44 -70 -15 -27 -20 -41 -11 -30
8 11 19 25 23 30 4 6 21 29 36 52 18 26 34 40 43 36 8 -3 14 0 14 7 0 6 -5 8
-12 4 -12 -8 50 79 77 107 8 9 15 20 15 25 0 19 253 282 390 404 53 47 117 90
134 90 8 0 18 10 21 21 6 17 9 19 16 8 12 -19 1 -76 -26 -129 -44 -88 -71
-135 -79 -137 -13 -3 -20 -13 -8 -13 7 0 5 -11 -6 -29 -11 -21 -19 -26 -25
-18 -5 7 -6 3 -2 -10 4 -14 -3 -36 -20 -62 -14 -23 -23 -41 -20 -41 3 0 -5
-15 -18 -32 -14 -18 -42 -67 -62 -108 -21 -41 -46 -87 -56 -102 -11 -14 -19
-33 -19 -42 0 -9 -4 -16 -10 -16 -5 0 -10 -7 -10 -17 0 -13 4 -11 20 7 11 13
20 27 20 32 0 4 22 47 49 96 26 48 75 134 107 192 32 58 68 123 80 145 119
222 173 320 208 375 68 106 67 102 19 68z"/>
<path d="M7480 8435 c0 -2 22 -42 48 -87 27 -46 62 -110 79 -143 18 -33 43
-80 57 -105 14 -25 34 -63 45 -85 11 -22 39 -74 62 -115 74 -134 340 -648 352
-683 2 -7 7 -9 11 -5 4 3 1 17 -7 30 -8 12 -20 41 -27 63 -7 22 -22 56 -33 75
-20 35 -86 160 -200 381 -32 62 -65 122 -73 133 -8 11 -14 27 -14 36 0 8 -9
26 -20 40 -11 14 -20 32 -20 41 0 9 -6 19 -14 22 -16 6 -76 125 -76 150 0 9
-4 17 -9 17 -11 0 -24 67 -16 80 7 12 73 -20 96 -47 9 -10 29 -27 45 -38 80
-55 343 -321 421 -425 31 -41 75 -100 99 -131 23 -31 47 -67 54 -80 7 -13 16
-26 19 -29 8 -6 50 -72 82 -125 39 -67 66 -87 32 -25 -92 171 -251 393 -391
545 -121 132 -295 292 -386 355 -32 23 -94 68 -137 100 -44 33 -79 58 -79 55z"/>
<path d="M5990 8357 c-41 -18 -104 -46 -140 -62 -36 -16 -87 -44 -115 -62 -27
-18 -53 -33 -56 -33 -24 0 -468 -273 -596 -367 -29 -21 -81 -58 -115 -83 -81
-57 -324 -245 -455 -352 -246 -201 -754 -706 -934 -928 -267 -329 -465 -637
-570 -887 -11 -25 -18 -31 -32 -27 -16 5 -18 2 -12 -16 5 -15 4 -20 -4 -16 -6
4 -11 3 -11 -3 0 -5 4 -12 9 -15 12 -8 1 -53 -17 -68 -13 -11 -14 -9 -9 12 6
20 4 19 -8 -5 -8 -16 -14 -38 -15 -47 0 -10 -14 -68 -31 -130 -41 -150 -66
-294 -79 -458 -34 -443 -34 -437 -5 -620 8 -47 19 -139 25 -205 6 -66 20 -164
30 -219 23 -116 97 -356 110 -356 5 0 7 -6 4 -14 -3 -8 -1 -17 5 -21 18 -10
25 24 11 50 -7 14 -16 23 -19 21 -3 -2 -7 15 -7 38 -1 22 -16 92 -33 154 -17
63 -33 135 -36 162 -6 72 -16 120 -26 120 -5 0 -9 12 -9 26 0 14 4 23 9 20 6
-4 6 5 1 21 -38 124 -53 253 -40 363 18 159 31 245 50 330 44 198 54 239 80
320 15 47 44 139 65 205 74 240 145 398 278 613 192 314 418 591 775 949 323
324 495 474 865 758 193 148 583 389 755 467 35 16 120 56 190 89 164 78 202
87 271 64 57 -19 394 -181 510 -246 408 -226 848 -563 1317 -1006 347 -329
512 -510 733 -808 52 -70 211 -311 211 -320 0 -3 15 -29 33 -58 18 -29 45 -81
61 -117 16 -36 34 -78 42 -95 33 -77 63 -157 87 -235 15 -47 44 -143 66 -213
48 -153 105 -378 126 -502 14 -84 22 -411 11 -446 -3 -8 -7 -54 -10 -104 -3
-49 -10 -104 -15 -122 -5 -17 -7 -34 -4 -37 3 -3 1 -11 -5 -18 -6 -7 -10 -33
-10 -58 0 -25 -7 -65 -17 -90 -9 -25 -20 -63 -24 -85 -4 -22 -15 -55 -24 -74
-9 -19 -17 -44 -17 -57 0 -13 -4 -26 -10 -29 -5 -3 -10 -15 -10 -26 0 -10 -4
-19 -9 -19 -5 0 -11 -18 -15 -39 -3 -21 -13 -41 -21 -45 -8 -3 -14 -9 -13 -13
4 -18 -15 -62 -29 -67 -8 -3 -12 -10 -9 -15 3 -5 -5 -25 -19 -45 -14 -20 -25
-43 -25 -51 0 -8 -9 -20 -20 -27 -11 -7 -20 -21 -20 -31 0 -10 -29 -62 -65
-117 -64 -96 -156 -201 -280 -321 -83 -80 -64 -84 22 -5 139 129 259 283 372
479 56 97 151 303 151 327 0 6 5 18 10 28 56 95 125 434 156 762 28 306 16
528 -47 880 -18 101 -30 148 -81 325 -6 22 -15 44 -20 50 -4 5 -8 19 -8 31 0
13 -8 29 -18 36 -11 7 -49 76 -86 153 -91 187 -169 321 -270 462 -258 362
-528 657 -945 1032 -300 270 -460 400 -791 642 -131 96 -391 265 -500 324 -58
32 -125 70 -150 85 -75 44 -81 47 -205 106 -152 72 -178 75 -275 31z"/>
<path d="M3909 8327 c-15 -23 -41 -66 -59 -95 -27 -43 -31 -55 -20 -65 10 -9
11 -9 6 1 -4 6 -2 12 3 12 18 0 12 -24 -9 -43 -11 -9 -20 -26 -20 -37 0 -11
-5 -20 -11 -20 -8 0 -8 -5 1 -15 10 -12 9 -15 -5 -15 -9 0 -15 -6 -12 -12 2
-7 0 -21 -5 -30 -6 -14 -5 -16 7 -12 8 4 15 1 15 -5 0 -6 -4 -11 -10 -11 -5 0
-10 -17 -10 -38 0 -21 -3 -42 -7 -46 -9 -8 -33 -77 -33 -93 0 -23 17 -14 28
15 5 15 18 56 27 92 10 36 47 152 82 258 36 107 63 195 61 197 -2 2 -15 -15
-29 -38z"/>
<path d="M8261 8298 c12 -29 37 -100 56 -158 20 -58 39 -112 43 -120 4 -9 11
-31 14 -50 8 -39 53 -194 66 -225 4 -11 11 -28 14 -38 4 -11 11 -15 18 -11 10
6 11 4 1 -7 -17 -18 -16 -29 2 -29 17 0 20 -16 5 -25 -7 -4 -8 -11 -2 -18 6
-7 12 -21 14 -32 l4 -20 11 20 c8 16 6 35 -13 90 -13 38 -29 74 -36 80 -7 5
-13 27 -14 48 0 21 -6 42 -13 46 -6 4 -9 15 -5 24 4 13 2 16 -8 12 -11 -5 -17
4 -21 32 -11 63 -10 68 12 48 22 -19 104 -179 104 -201 0 -7 6 -15 14 -18 7
-3 13 -17 13 -31 0 -14 4 -25 10 -25 5 0 7 -6 4 -13 -7 -19 33 -107 48 -107
10 0 10 -2 0 -9 -11 -6 -8 -13 12 -29 17 -13 22 -22 14 -25 -7 -2 -10 -8 -5
-12 4 -5 12 -4 17 1 9 9 -21 106 -55 181 -8 17 -15 36 -15 42 0 6 -4 19 -9 29
-5 9 -27 55 -47 102 -75 168 -254 500 -270 500 -2 0 6 -24 17 -52z"/>
<path d="M6460 7821 c0 -5 7 -11 14 -14 10 -4 13 -1 9 9 -6 15 -23 19 -23 5z"/>
<path d="M3640 7809 c0 -5 5 -7 10 -4 6 3 10 8 10 11 0 2 -4 4 -10 4 -5 0 -10
-5 -10 -11z"/>
<path d="M5681 7794 c-12 -27 -11 -28 4 -12 10 9 16 21 13 28 -2 7 -10 -1 -17
-16z"/>
<path d="M3626 7773 c-4 -9 -4 -18 -1 -21 3 -3 5 0 5 8 0 9 3 10 13 1 10 -8
14 -7 14 4 0 20 -24 27 -31 8z"/>
<path d="M3736 7765 c-3 -9 -6 -24 -5 -33 0 -9 5 -4 10 12 9 32 6 48 -5 21z"/>
<path d="M6536 7738 c47 -41 136 -93 202 -116 52 -19 247 -133 284 -166 12
-11 40 -30 61 -41 22 -11 50 -33 63 -48 13 -16 24 -25 24 -21 0 5 7 -2 16 -14
8 -12 21 -22 28 -22 14 0 87 -51 136 -97 36 -33 115 -98 176 -143 38 -28 46
-55 14 -47 -23 6 -28 -8 -6 -16 8 -3 20 1 26 8 13 16 34 10 25 -6 -3 -5 0 -6
8 -3 16 6 44 -23 33 -33 -4 -4 -11 -1 -16 7 -5 8 -11 12 -14 9 -9 -9 62 -79
76 -75 7 1 9 1 5 -2 -15 -8 24 -41 41 -35 10 4 14 2 9 -2 -8 -10 51 -75 68
-75 12 0 45 -36 45 -49 0 -4 12 -13 26 -20 15 -6 24 -15 20 -18 -6 -6 49 -60
123 -123 16 -14 30 -30 30 -35 1 -14 177 -185 190 -185 6 0 10 -4 9 -9 -3 -10
108 -121 121 -121 13 0 42 -36 34 -43 -3 -4 -1 -7 5 -7 7 0 12 -7 12 -15 0 -8
7 -15 15 -15 8 0 15 -4 15 -9 0 -5 11 -19 25 -32 13 -13 25 -28 25 -32 0 -4
10 -18 23 -31 12 -13 27 -32 34 -42 12 -19 12 -19 12 0 1 16 3 17 18 5 15 -13
15 -12 2 9 -8 12 -15 18 -17 12 -2 -5 -9 -10 -14 -10 -6 0 -8 3 -5 6 4 4 -3
15 -14 25 -12 10 -18 23 -14 28 3 6 -25 48 -64 93 -100 119 -764 778 -906 899
-199 170 -576 444 -725 527 -45 26 -281 146 -314 161 -5 2 9 -12 30 -31z
m1124 -789 c0 -6 -4 -7 -10 -4 -5 3 -10 11 -10 16 0 6 5 7 10 4 6 -3 10 -11
10 -16z m840 -841 c0 -6 -6 -5 -15 2 -8 7 -15 14 -15 16 0 2 7 1 15 -2 8 -4
15 -11 15 -16z"/>
<path d="M5507 7696 c-102 -51 -116 -61 -68 -51 51 11 197 95 164 95 -4 0 -48
-20 -96 -44z"/>
<path d="M3610 7726 c0 -2 7 -6 15 -10 8 -3 15 -1 15 4 0 6 -7 10 -15 10 -8 0
-15 -2 -15 -4z"/>
<path d="M3597 7703 c-12 -11 -8 -30 6 -30 7 0 14 9 14 19 2 18 -8 24 -20 11z"/>
<path d="M3700 7690 c0 -5 5 -10 11 -10 5 0 7 5 4 10 -3 6 -8 10 -11 10 -2 0
-4 -4 -4 -10z"/>
<path d="M3573 7632 c-34 -77 -42 -110 -27 -116 9 -4 13 1 11 17 -1 12 3 21
10 20 6 -1 10 8 8 22 -1 17 3 25 14 25 14 0 14 2 1 10 -13 9 -13 11 0 20 10 6
12 12 5 19 -7 7 -14 2 -22 -17z"/>
<path d="M3700 7641 c0 -25 6 -27 13 -6 4 8 2 17 -3 20 -6 4 -10 -3 -10 -14z"/>
<path d="M5375 7626 c-38 -21 -45 -27 -40 -36 3 -5 14 -1 24 9 10 10 25 21 32
23 8 3 12 7 9 10 -3 3 -14 0 -25 -6z"/>
<path d="M3686 7579 c-8 -42 0 -50 9 -9 4 17 5 34 2 36 -2 3 -7 -10 -11 -27z"/>
<path d="M5280 7570 c-8 -5 -10 -10 -5 -10 6 0 17 5 25 10 8 5 11 10 5 10 -5
0 -17 -5 -25 -10z"/>
<path d="M8500 7545 c0 -23 51 -167 72 -200 l18 -30 0 37 c0 21 -6 41 -14 45
-7 4 -19 32 -26 61 -7 30 -19 56 -26 59 -9 3 -12 13 -9 24 4 11 2 19 -4 19 -6
0 -11 -7 -11 -15z"/>
<path d="M5223 7533 c-15 -5 -18 -33 -4 -33 5 0 11 9 14 20 3 11 4 20 4 19 -1
0 -8 -3 -14 -6z"/>
<path d="M3660 7514 c0 -8 5 -12 10 -9 6 3 10 10 10 16 0 5 -4 9 -10 9 -5 0
-10 -7 -10 -16z"/>
<path d="M3520 7494 c0 -8 5 -12 10 -9 6 3 10 10 10 16 0 5 -4 9 -10 9 -5 0
-10 -7 -10 -16z"/>
<path d="M5155 7490 c-3 -6 1 -7 9 -4 18 7 21 14 7 14 -6 0 -13 -4 -16 -10z"/>
<path d="M4153 7463 c-17 -35 -16 -48 1 -31 17 17 30 58 19 58 -4 0 -14 -12
-20 -27z"/>
<path d="M3646 7454 c-4 -14 -5 -29 -2 -31 3 -3 8 7 12 21 3 15 4 29 1 32 -2
3 -8 -7 -11 -22z"/>
<path d="M3496 7425 c-32 -91 -55 -179 -49 -190 4 -5 2 -7 -2 -2 -9 8 -63
-152 -64 -189 -1 -11 -5 -24 -10 -30 -5 -5 -23 -56 -41 -114 -17 -58 -35 -114
-39 -125 -22 -56 -112 -366 -109 -376 6 -18 51 54 51 83 0 15 4 28 9 28 5 0 6
5 3 10 -4 6 0 21 8 33 8 12 16 36 19 52 6 32 27 120 36 145 3 8 6 20 8 25 3
11 11 34 50 150 16 44 27 81 26 83 -1 1 4 15 12 30 8 15 16 43 18 62 2 19 14
54 26 77 14 27 20 52 17 66 -4 15 -1 28 9 36 9 8 16 19 16 25 0 6 -5 4 -10 -4
-5 -8 -10 -10 -10 -4 0 6 7 17 15 24 18 15 21 44 3 34 -10 -6 -10 -4 -2 7 16
20 36 87 32 101 -3 7 -12 -10 -22 -37z"/>
<path d="M3756 7463 c-11 -12 -47 -96 -42 -100 5 -5 17 17 39 70 16 37 17 43
3 30z"/>
<path d="M5095 7450 c-3 -5 -2 -10 4 -10 5 0 13 5 16 10 3 6 2 10 -4 10 -5 0
-13 -4 -16 -10z"/>
<path d="M8660 7433 c0 -13 5 -23 11 -23 6 0 9 -7 5 -15 -3 -9 1 -36 10 -60 8
-25 12 -49 9 -54 -3 -5 0 -15 7 -23 7 -7 14 -28 15 -46 1 -18 9 -47 17 -65 8
-17 20 -52 26 -77 7 -25 16 -50 21 -56 5 -7 8 -16 7 -20 -3 -11 41 -135 54
-151 7 -9 7 -13 -2 -13 -9 0 -8 -5 3 -18 10 -10 17 -26 17 -35 0 -9 5 -17 11
-17 5 0 8 -4 5 -9 -3 -4 8 -46 24 -92 16 -46 30 -103 30 -126 0 -23 4 -44 8
-47 5 -3 17 -32 27 -65 19 -65 40 -76 23 -13 -35 134 -101 363 -112 392 -8 19
-24 69 -36 110 -12 41 -39 129 -60 195 -108 343 -119 373 -120 328z"/>
<path d="M5025 7399 c-56 -42 -58 -46 -40 -53 13 -4 16 -2 11 9 -3 9 0 15 8
15 7 0 19 7 26 15 7 9 20 13 29 10 8 -3 12 -3 8 1 -4 4 -2 13 4 21 19 23 -4
14 -46 -18z"/>
<path d="M4125 7390 c-4 -12 -5 -24 -2 -27 3 -2 8 5 12 17 4 12 5 24 2 27 -3
2 -8 -5 -12 -17z"/>
<path d="M4091 7319 c-6 -18 -9 -34 -7 -36 2 -2 9 10 15 28 6 18 9 34 7 36 -2
2 -9 -10 -15 -28z"/>
<path d="M4940 7335 c-8 -9 -8 -15 -2 -15 12 0 26 19 19 26 -2 2 -10 -2 -17
-11z"/>
<path d="M4858 7273 c-18 -15 -35 -30 -38 -33 -3 -4 -36 -31 -75 -61 -69 -55
-118 -103 -85 -84 8 5 36 26 61 47 26 21 50 38 54 38 7 0 19 11 100 84 46 42
32 49 -17 9z"/>
<path d="M8140 7194 c0 -16 24 -64 33 -64 5 0 5 5 2 10 -3 6 -13 22 -21 38 -7
15 -14 22 -14 16z"/>
<path d="M7490 7030 c0 -5 5 -10 11 -10 5 0 7 5 4 10 -3 6 -8 10 -11 10 -2 0
-4 -4 -4 -10z"/>
<path d="M4390 6863 l-25 -25 28 17 c15 10 27 21 27 26 0 12 -2 11 -30 -18z"/>
<path d="M4161 6643 c-187 -189 -301 -309 -301 -318 0 -3 5 -5 10 -5 10 0 53
44 170 175 34 39 76 81 92 95 69 57 239 240 223 240 -5 0 -92 -84 -194 -187z"/>
<path d="M8993 6353 c-7 -3 -13 -12 -13 -21 0 -15 2 -15 17 1 18 18 16 27 -4
20z"/>
<path d="M3156 6338 c-2 -7 -15 -50 -30 -94 -26 -82 -33 -134 -18 -134 11 0
52 95 52 121 0 12 8 28 18 35 11 9 13 13 4 14 -7 0 -10 5 -7 10 3 6 1 10 -5
10 -8 0 -10 9 -6 25 6 25 -1 37 -8 13z"/>
<path d="M8995 6300 c3 -5 8 -10 11 -10 2 0 4 5 4 10 0 6 -5 10 -11 10 -5 0
-7 -4 -4 -10z"/>
<path d="M3805 6262 c-29 -25 -115 -129 -115 -138 0 -10 118 115 131 139 12
21 9 21 -16 -1z"/>
<path d="M9007 6273 c-3 -4 3 -25 13 -45 10 -20 16 -39 14 -41 -2 -2 3 -21 12
-42 8 -21 13 -47 10 -57 -6 -24 3 -50 15 -43 4 3 6 -8 4 -25 -2 -16 1 -33 6
-36 6 -3 8 -12 5 -20 -3 -7 5 -20 17 -29 18 -12 19 -15 4 -15 -9 0 -17 -7 -17
-15 0 -17 9 -19 29 -6 11 7 11 15 0 45 -7 20 -15 36 -19 36 -3 0 -6 16 -7 36
-1 20 -5 44 -9 53 -9 20 -7 13 -23 94 -7 37 -17 67 -22 67 -5 0 -6 6 -3 13 5
15 -21 43 -29 30z"/>
<path d="M3100 6073 c-8 -3 -18 -11 -22 -17 -11 -16 -10 -46 2 -46 5 0 7 7 4
15 -5 11 -2 14 12 9 11 -4 16 -4 12 1 -4 4 -3 16 3 26 5 11 8 19 7 18 -2 0
-10 -3 -18 -6z"/>
<path d="M3060 5981 c0 -11 4 -22 9 -25 5 -3 8 5 7 19 -1 29 -16 34 -16 6z"/>
<path d="M8584 5968 c-4 -5 -3 -12 0 -15 3 -4 6 -1 6 6 0 7 4 10 9 6 5 -3 12
-2 15 3 3 5 -2 9 -10 9 -8 0 -17 -4 -20 -9z"/>
<path d="M3027 5873 c-5 -26 -4 -26 9 -8 16 22 18 35 5 35 -5 0 -11 -12 -14
-27z"/>
<path d="M9120 5882 c0 -5 7 -17 16 -28 14 -17 15 -17 10 -1 -3 10 -6 23 -6
28 0 5 -4 9 -10 9 -5 0 -10 -4 -10 -8z"/>
<path d="M3030 5830 c20 -13 33 -13 25 0 -3 6 -14 10 -23 10 -15 0 -15 -2 -2
-10z"/>
<path d="M3482 5829 c2 -6 8 -10 13 -10 5 0 11 4 13 10 2 6 -4 11 -13 11 -9 0
-15 -5 -13 -11z"/>
<path d="M3020 5811 c0 -5 5 -13 10 -16 6 -3 10 -2 10 4 0 5 -4 13 -10 16 -5
3 -10 2 -10 -4z"/>
<path d="M9120 5813 c1 -4 7 -19 15 -33 11 -20 14 -21 15 -7 0 10 -7 25 -15
33 -8 9 -15 12 -15 7z"/>
<path d="M3460 5795 c-7 -9 -11 -18 -8 -20 3 -3 11 1 18 10 7 9 11 18 8 20 -3
3 -11 -1 -18 -10z"/>
<path d="M8728 5753 c6 -2 12 -11 12 -19 0 -9 5 -12 10 -9 13 8 -6 35 -24 34
-7 0 -6 -2 2 -6z"/>
<path d="M9175 5670 c3 -5 8 -10 11 -10 2 0 4 5 4 10 0 6 -5 10 -11 10 -5 0
-7 -4 -4 -10z"/>
<path d="M8890 5541 c0 -6 5 -13 10 -16 6 -3 10 1 10 9 0 9 -4 16 -10 16 -5 0
-10 -4 -10 -9z"/>
<path d="M8976 5457 c3 -10 9 -15 12 -12 3 3 0 11 -7 18 -10 9 -11 8 -5 -6z"/>
<path d="M3127 5339 c-10 -18 -16 -33 -14 -35 8 -8 39 35 35 50 -2 11 -8 6
-21 -15z"/>
<path d="M3101 5283 c0 -6 -4 -20 -7 -30 -5 -14 -4 -15 5 -7 7 7 11 20 8 30
-3 11 -5 14 -6 7z"/>
<path d="M2981 3344 c0 -11 3 -14 6 -6 3 7 2 16 -1 19 -3 4 -6 -2 -5 -13z"/>
<path d="M2990 3299 c0 -5 5 -7 10 -4 6 3 10 8 10 11 0 2 -4 4 -10 4 -5 0 -10
-5 -10 -11z"/>
<path d="M9050 3260 c-9 -16 -8 -18 5 -14 8 4 15 12 15 20 0 20 -7 17 -20 -6z"/>
<path d="M3026 3227 c3 -10 9 -15 12 -12 3 3 0 11 -7 18 -10 9 -11 8 -5 -6z"/>
<path d="M3055 3169 c41 -87 114 -203 209 -334 50 -71 65 -88 190 -228 69 -78
101 -98 51 -33 -15 19 -24 39 -21 44 6 10 -78 102 -92 102 -4 0 -21 18 -38 40
-16 22 -35 40 -41 40 -7 0 -13 4 -13 9 0 5 -7 16 -15 24 -16 17 -50 71 -65
105 -5 12 -14 22 -19 22 -5 0 -14 14 -21 30 -7 17 -16 30 -21 30 -5 0 -9 10
-9 23 0 12 -14 35 -30 51 -17 16 -30 35 -30 43 0 7 -4 13 -9 13 -5 0 -11 10
-13 22 -2 12 -9 23 -16 26 -11 3 -10 -4 3 -29z"/>
<path d="M3540 2514 c0 -3 19 -27 43 -52 260 -281 352 -373 335 -340 -7 15
-58 73 -113 130 -55 57 -131 138 -169 180 -63 69 -96 98 -96 82z"/>
<path d="M8758 2422 c-84 -62 -138 -107 -138 -115 0 -4 16 4 35 19 19 14 35
22 35 18 0 -5 -9 -15 -20 -22 -11 -7 -20 -18 -20 -26 0 -7 -7 -19 -15 -26 -9
-7 -14 -15 -12 -17 8 -7 128 111 149 147 12 19 27 38 32 42 7 5 7 7 1 7 -5 0
-26 -13 -47 -27z"/>
<path d="M3350 2433 c0 -13 69 -81 103 -101 30 -18 37 -35 10 -25 -11 4 -14 3
-9 -6 4 -6 15 -9 25 -6 9 3 26 -2 37 -10 19 -14 18 -14 -3 -15 -13 0 -23 -4
-23 -10 0 -13 6 -13 31 1 21 11 49 -3 49 -24 0 -7 -4 -7 -12 1 -7 7 -16 12
-21 12 -4 0 13 -18 38 -40 25 -22 52 -40 59 -40 8 0 19 -7 26 -15 7 -9 19 -14
27 -11 8 3 13 -1 13 -11 0 -13 3 -14 11 -6 6 6 18 9 26 6 11 -4 11 -8 3 -13
-8 -5 -7 -9 5 -13 9 -4 13 -3 10 3 -3 6 -1 10 6 10 7 0 -7 14 -32 32 -88 64
-285 212 -331 251 -27 21 -48 35 -48 30z"/>
<path d="M8583 2293 c-14 -5 -18 -33 -5 -33 4 0 13 9 20 20 12 20 8 23 -15 13z"/>
<path d="M3645 2110 c3 -5 8 -10 11 -10 2 0 4 5 4 10 0 6 -5 10 -11 10 -5 0
-7 -4 -4 -10z"/>
<path d="M3770 2084 c0 -3 7 -12 15 -20 16 -17 18 -14 9 10 -6 15 -24 23 -24
10z"/>
<path d="M3725 2040 c3 -5 11 -10 16 -10 6 0 7 5 4 10 -3 6 -11 10 -16 10 -6
0 -7 -4 -4 -10z"/>
<path d="M3810 2030 c0 -13 28 -25 38 -16 3 4 0 11 -8 16 -20 13 -30 12 -30 0z"/>
<path d="M3790 1967 c0 -13 53 -67 65 -67 14 0 2 24 -25 50 -34 34 -40 36 -40
17z"/>
<path d="M4095 1890 c3 -5 11 -10 16 -10 6 0 7 5 4 10 -3 6 -11 10 -16 10 -6
0 -7 -4 -4 -10z"/>
<path d="M4125 1860 c3 -5 8 -10 11 -10 2 0 4 5 4 10 0 6 -5 10 -11 10 -5 0
-7 -4 -4 -10z"/>
<path d="M502 9387 c-27 -29 -28 -61 -2 -87 29 -29 74 -26 99 6 26 33 26 45 0
78 -26 33 -68 34 -97 3z"/>
<path d="M11567 9392 c-19 -21 -22 -64 -7 -93 8 -14 21 -19 56 -19 43 0 46 2
61 37 13 33 13 41 1 63 -18 33 -85 41 -111 12z"/>
<path d="M11444 7861 c-12 -5 -25 -15 -29 -21 -4 -6 -15 -8 -26 -5 -15 5 -19
1 -19 -14 0 -12 6 -21 13 -21 6 0 27 -23 45 -50 17 -28 39 -50 46 -50 49 0
113 117 82 148 -17 17 -84 25 -112 13z"/>
<path d="M520 7850 c-26 -26 -26 -87 -1 -117 23 -27 61 -37 82 -20 27 20 59
80 59 109 0 23 -6 29 -37 37 -55 16 -81 13 -103 -9z"/>
<path d="M582 6937 c-28 -30 -29 -80 -2 -107 25 -25 27 -25 68 0 41 25 44 69
7 105 -30 31 -46 31 -73 2z"/>
<path d="M556 5529 c-30 -35 -33 -61 -10 -83 30 -30 52 -37 77 -25 62 32 74
73 32 114 -33 34 -67 32 -99 -6z"/>
<path d="M756 5514 c-3 -9 -6 -31 -6 -50 0 -38 -8 -37 147 -34 46 1 92 -4 105
-11 13 -6 61 -48 108 -93 134 -127 282 -261 312 -280 25 -16 45 -17 210 -12
110 4 185 11 189 17 5 8 12 8 26 1 23 -13 263 -19 281 -8 16 9 16 112 0 122
-6 4 -70 7 -142 6 -114 -1 -132 -3 -144 -19 -11 -15 -14 -16 -22 -3 -5 8 -10
17 -10 20 0 3 -83 5 -185 5 -130 1 -188 4 -197 13 -15 15 -6 15 222 16 163 1
165 1 168 24 4 27 13 28 29 3 11 -18 26 -20 148 -23 125 -3 136 -2 141 16 8
23 7 124 -1 136 -8 13 -267 11 -282 -2 -7 -6 -13 -24 -13 -41 0 -39 -17 -24
-22 18 l-3 30 -160 5 c-88 3 -155 8 -150 12 6 3 77 5 158 3 139 -4 147 -3 158
16 10 20 11 20 23 3 12 -15 30 -17 151 -17 75 1 138 3 140 5 1 2 5 33 7 71 l4
67 -692 0 c-622 0 -692 -2 -698 -16z m547 -112 c2 -62 -5 -94 -17 -81 -6 6 -9
56 -8 119 3 80 22 50 25 -38z m173 -25 c3 -3 -13 -6 -36 -5 -25 0 -37 4 -29 8
13 9 55 7 65 -3z m-189 -89 c-3 -8 -6 -5 -6 6 -1 11 2 17 5 13 3 -3 4 -12 1
-19z m13 -57 c0 -6 -4 -13 -10 -16 -5 -3 -10 1 -10 9 0 9 5 16 10 16 6 0 10
-4 10 -9z"/>
<path d="M2130 4870 c6 -11 13 -20 16 -20 2 0 0 9 -6 20 -6 11 -13 20 -16 20
-2 0 0 -9 6 -20z"/>
<path d="M11490 6945 c-22 -26 -25 -93 -5 -115 24 -27 47 -25 84 6 38 32 39
59 4 96 -29 31 -64 36 -83 13z"/>
<path d="M11500 5540 c-20 -20 -26 -63 -14 -94 8 -20 71 -21 97 -2 10 8 17 27
17 48 0 61 -59 89 -100 48z"/>
<path d="M11527 4302 c-10 -11 -17 -35 -17 -60 0 -37 3 -42 26 -48 38 -10 77
7 88 38 7 20 4 32 -13 57 -26 35 -59 41 -84 13z"/>
<path d="M526 4298 c-21 -30 -21 -94 0 -102 50 -19 114 8 114 48 0 32 -43 76
-74 76 -14 0 -31 -9 -40 -22z"/>
<path d="M536 3658 c-19 -27 -21 -89 -4 -106 20 -20 67 -14 93 12 22 22 23 28
14 55 -20 58 -76 78 -103 39z"/>
<path d="M837 3524 c2 -6 48 -47 101 -90 53 -43 133 -111 177 -149 44 -39 106
-90 138 -113 l57 -43 273 -6 c424 -10 525 -10 537 -3 6 4 10 25 8 46 l-3 39
-135 -2 c-136 -2 -272 -2 -563 1 l-159 1 1 158 c2 121 -1 158 -11 162 -7 2
-106 5 -219 7 -151 2 -205 0 -202 -8z"/>
<path d="M1308 3523 c-6 -7 -8 -65 -6 -140 l3 -128 252 0 c167 -1 254 3 256
10 2 5 3 66 2 135 l-1 125 -248 5 c-186 4 -250 2 -258 -7z"/>
<path d="M1854 3531 c-2 -2 -4 -53 -4 -112 0 -61 -4 -110 -10 -114 -7 -4 -7
-13 0 -26 10 -17 22 -19 144 -19 95 0 137 4 144 13 8 9 17 190 13 254 -1 9
-38 12 -142 10 -77 -1 -142 -4 -145 -6z"/>
<path d="M521 3134 c-48 -61 -8 -128 62 -105 19 7 40 23 47 36 13 23 11 28
-20 60 -41 42 -62 44 -89 9z"/>
<path d="M1541 3088 c6 -13 51 -62 100 -109 l88 -86 98 -6 c192 -13 424 -8
478 11 48 16 50 19 53 57 1 22 3 56 5 75 l2 35 -64 -2 c-35 -1 -76 -7 -90 -13
-25 -10 -27 -15 -24 -65 4 -91 -31 -66 -40 28 -5 49 -12 51 -244 53 -235 3
-293 8 -335 30 -37 19 -41 18 -27 -8z"/>
<path d="M2707 2859 c7 -7 15 -10 18 -7 3 3 -2 9 -12 12 -14 6 -15 5 -6 -5z"/>
<path d="M2725 2831 c7 -13 -24 -23 -47 -15 -25 8 -71 -25 -173 -121 -78 -74
-79 -76 -45 -70 19 3 42 7 50 9 34 5 126 40 141 52 8 8 22 14 31 14 8 0 23 9
32 19 10 11 30 21 45 23 22 3 26 8 26 36 0 29 -5 36 -33 48 -18 7 -30 9 -27 5z"/>
<path d="M10145 3824 c-12 -109 -24 -102 203 -103 108 -1 257 -4 330 -7 l132
-7 0 81 c0 72 -2 83 -21 92 -14 8 -116 10 -329 8 l-309 -3 -6 -61z"/>
<path d="M10146 3674 c-8 -21 -7 -67 2 -80 5 -8 112 -13 334 -17 l326 -6 7 26
c3 14 3 38 0 53 l-6 28 -217 5 c-382 10 -439 9 -446 -9z"/>
<path d="M11510 3648 c-23 -38 -24 -42 -9 -71 25 -46 65 -49 111 -8 l32 29
-27 41 c-22 33 -33 41 -57 41 -23 0 -35 -7 -50 -32z"/>
<path d="M10148 3520 c0 -8 -1 -24 -1 -35 0 -11 1 -68 2 -127 l1 -108 320 3
c273 2 322 4 330 17 5 8 10 71 10 140 l0 125 -330 0 c-286 0 -330 -2 -332 -15z"/>
<path d="M10958 3533 l-126 -4 -4 -122 c-2 -67 -2 -125 0 -129 1 -4 10 0 20
10 9 9 40 35 67 57 28 22 55 45 61 50 6 6 41 36 77 69 60 53 76 80 44 74 -7
-1 -69 -4 -139 -5z"/>
<path d="M10041 3291 l-34 -28 54 -5 c61 -6 72 -2 47 16 -10 7 -15 15 -13 18
3 3 0 10 -7 16 -10 8 -22 3 -47 -17z"/>
<path d="M10145 3189 c-4 -11 -4 -33 0 -49 l6 -29 247 4 c136 1 282 6 325 10
l78 8 -3 35 -3 34 -322 3 c-312 3 -322 3 -328 -16z"/>
<path d="M11521 3134 c-57 -73 20 -154 84 -89 32 31 31 56 -1 89 -34 33 -57
33 -83 0z"/>
<path d="M10612 3090 c-18 -15 -40 -18 -130 -19 -181 -2 -326 -12 -334 -25 -4
-6 -8 -43 -8 -83 l0 -71 76 -7 c42 -4 106 -5 141 -2 92 9 170 67 282 210 18
23 2 21 -27 -3z"/>
<path d="M9477 2883 c-3 -5 45 -60 107 -121 104 -103 116 -112 152 -113 21 0
48 -3 59 -5 22 -5 306 -7 310 -2 2 2 4 44 6 93 l4 90 -95 1 c-61 0 -104 5
-120 14 -40 22 -413 60 -423 43z"/>
<path d="M9396 2817 c-31 -23 -9 -66 44 -87 25 -10 76 -37 113 -60 38 -23 71
-39 73 -37 10 10 -10 36 -64 83 -31 27 -72 64 -90 82 -38 35 -49 38 -76 19z"/>
<path d="M226 3585 c-9 -24 -7 -88 3 -103 5 -8 17 -12 27 -10 16 3 19 12 19
63 0 54 -2 60 -21 63 -13 2 -24 -4 -28 -13z"/>
<path d="M2883 2245 c-94 -26 -232 -83 -465 -194 -48 -22 -90 -41 -95 -41 -4
0 -68 -34 -142 -75 -74 -41 -137 -75 -139 -75 -8 0 -279 -154 -367 -209 -222
-137 -392 -260 -496 -358 -69 -66 -209 -241 -209 -262 0 -9 4 -8 15 3 8 8 15
19 15 25 0 5 6 14 14 18 7 4 35 35 61 68 82 102 178 188 248 224 18 9 31 22
29 29 -1 7 5 15 14 19 9 3 29 18 43 33 14 15 38 33 52 41 15 8 71 43 125 79
149 99 144 96 344 202 247 131 415 218 422 218 4 0 8 4 8 9 0 5 15 12 34 15
19 4 39 13 46 21 7 8 16 15 21 15 5 0 40 15 79 34 38 19 84 37 100 41 16 4 32
11 35 16 4 5 15 9 26 9 11 0 18 4 15 8 -3 5 37 21 87 36 51 15 106 34 122 41
17 8 41 16 55 18 18 3 16 4 -10 5 -19 0 -58 -6 -87 -13z"/>
<path d="M3018 2253 c7 -3 16 -2 19 1 4 3 -2 6 -13 5 -11 0 -14 -3 -6 -6z"/>
<path d="M9120 2242 c0 -4 8 -8 18 -8 61 -2 193 -24 207 -34 6 -4 24 -10 40
-14 17 -4 55 -19 85 -33 144 -68 201 -93 209 -93 5 0 11 -3 13 -7 5 -12 54
-39 138 -79 41 -19 84 -40 95 -47 11 -6 47 -24 80 -40 33 -16 67 -35 75 -42 8
-7 53 -33 100 -58 47 -25 137 -77 200 -116 63 -39 137 -83 164 -98 170 -97
394 -267 485 -368 20 -22 59 -62 87 -90 28 -28 58 -63 68 -78 10 -15 23 -27
28 -27 13 0 -108 146 -186 225 -34 34 -92 88 -130 120 -125 104 -558 379 -821
520 -49 27 -121 66 -160 87 -205 112 -441 218 -585 264 -73 23 -210 34 -210
16z"/>
<path d="M511 2111 c-26 -37 -26 -52 0 -85 27 -34 71 -35 104 -1 33 32 31 58
-6 89 -41 34 -72 33 -98 -3z"/>
<path d="M11567 2120 c-33 -26 -42 -65 -22 -96 23 -35 66 -32 99 7 32 38 33
53 1 84 -29 30 -45 31 -78 5z"/>
<path d="M5192 880 c-28 -38 -29 -103 -2 -147 24 -40 51 -42 79 -7 44 56 11
184 -46 184 -5 0 -19 -13 -31 -30z"/>
<path d="M6905 876 c-21 -32 -35 -84 -28 -104 11 -30 46 -62 69 -62 48 0 83
115 50 165 -22 34 -69 34 -91 1z"/>
<path d="M11981 8506 c-15 -18 -10 -68 7 -74 8 -2 12 10 12 42 0 50 -2 53 -19
32z"/>
</g>
</svg>
