<svg xmlns="http://www.w3.org/2000/svg" width="512" height="512" viewBox="0 0 256 256"><path fill="#fff" d="M236.6 123.5a46.54 46.54 0 0 0-30.8-43.9A67 67 0 0 0 140.2 0 66.72 66.72 0 0 0 86 27.7a35.5 35.5 0 0 0-57.2 28.1A36.8 36.8 0 0 0 31 68.2a46.75 46.75 0 0 0-.1 88 66.66 66.66 0 0 0 119.6 51.6 35 35 0 0 0 21.7 7.6 35.51 35.51 0 0 0 35.5-35.5 36.8 36.8 0 0 0-2.2-12.4 47.08 47.08 0 0 0 31.1-44"/><path fill="#fed10a" d="m93 101.5 51.8 23.6L197 79.3a54.7 54.7 0 0 0 1.1-11.5 58.35 58.35 0 0 0-106.5-33l-8.7 45.1z"/><path fill="#24bbb1" d="M39.4 156.3a56.6 56.6 0 0 0-1.1 11.7 58.58 58.58 0 0 0 107 32.9l8.6-44.9-11.5-22-52-23.7z"/><path fill="#ef5098" d="m39.1 66.7 35.5 8.4 7.8-40.3a28 28 0 0 0-43.3 31.9"/><path fill="#17a8e0" d="M36 75.2a39.1 39.1 0 0 0-1.7 73.7l49.8-45L75 84.4z"/><path fill="#93c83e" d="M154.3 200.9a28 28 0 0 0 43.2-31.9l-35.4-8.3z"/><path fill="#0779a1" d="m161.5 151.4 39 9.1a39.1 39.1 0 0 0 1.7-73.7l-51 44.7z"/></svg>