<svg xmlns="http://www.w3.org/2000/svg" width="500" height="500" viewBox="0 0 135.47 135.47"><path fill="#fff" d="M71.766 36.352s-10.212-.68-27.602 4.762c-17.722 5.545-27.773 13.405-27.773 13.405S42.805 39.77 72.619 38.933zm38.09 16.035 1.328-.087s-7.607-9.228-22.165-13.724c8.184 3.327 15.307 7.735 20.837 13.81zm2.173 3.834c.204-.353.863 1.125 1.363 1.746.021.124.057.2-.234.14-.024-.128-.066-.165-.066-.165s-.7-.416-.915-.712-.253-.813-.148-1.009m17.867 43.93s1.614-18.538-27.511-22.812a95 95 0 0 0-13.082-.97c-23.344.309-24.195-26.924-6.605-28.299 7.29-.602 15.995 3.331 24.505 7.294-.031 1.057.012 1.996.707 2.864.694.868 3.36 1.814 4.213 2.303.852.49 3.581 2.225 5.254 4.402.363-.679 3.392-2.65 3.392-2.65s-.726.015-2.414-.616c-1.689-.63-3.692-2.54-3.74-2.65-.047-.11-.078-.284.316-.363.3-.252-.379-1.073-.678-1.372s-2.304-3.708-2.351-3.787-.063-.157-.205-.252c-.442-.142-2.383.205-2.383.205s-2.985-1.466-4.013-4.626c.015.553-.512 1.158 0 2.43-1.557-.659-2.893-1.782-3.948-4.556-.627 1.578 0 2.581 0 2.581s-3.664-1.024-4.25-4.403c-.644 1.517 0 2.43 0 2.43S91.127 44.185 81.2 44.14c-6.646-.61-8.03-12.301-7.413-14.27 0 0-9.586-5.051-28.456-7.283s-34.346-.337-34.346-.337 33.42-1.604 60.195 9.236c.91 4.07 3.648 10.85 5.122 14.11-4.22 2.917-8.978 5.66-9.719 15.39S74.21 79.277 84.582 79.54c9.85.525 16.656.6 24.905 4.876 7.874 4.353 14.33 17.62 14.97 29.55.69-8.852-2.633-27.888-18.135-33.668 21.667 3.791 23.573 19.854 23.573 19.854zm-58.64-65.253-.78-2.514s-12.864-2.285-30.16-1.055-34.759 7.284-34.759 7.284 35.732-8.991 65.698-3.715"/></svg>