<svg xmlns="http://www.w3.org/2000/svg" width="512" height="512" viewBox="0 0 384 384"><filter id="a" width="1.116" height="1.116" x="-.058" y="-.058" color-interpolation-filters="sRGB"><feGaussianBlur stdDeviation="8.613"/></filter><path d="M190.4 14.843q-2.246 0-4.48.057l-.46.015a179 179 0 0 0-23.62 2.22c-2.452.396-4.891.83-7.308 1.325-1.045.213-2.083.446-3.12.678a177 177 0 0 0-16.633 4.582c-.485.16-.974.31-1.456.473l-.003.002c-.407.137-.81.287-1.215.427q-5.197 1.8-10.244 3.907c-.243.102-.49.196-.732.299l-.003.001q-1.995.844-3.964 1.733l-.003.002-.256.12a177 177 0 0 0-7.498 3.615l-.023.012c-.134.069-.266.142-.4.21a178 178 0 0 0-3.411 1.801 177 177 0 0 0-7.45 4.285l-.003.001q-1.833 1.115-3.637 2.27l-.003.002a178 178 0 0 0-3.577 2.356l-.003.001a179 179 0 0 0-3.517 2.438l-.003.001a179 179 0 0 0-3.454 2.521l-.003.002q-1.711 1.28-3.391 2.6c-.85.668-1.688 1.35-2.525 2.033-.267.218-.54.428-.805.647l-.001.002a179 179 0 0 0-3.26 2.757l-.004.001q-1.612 1.399-3.192 2.835l-.002.001a179 179 0 0 0-3.122 2.908l-.003.001a179 179 0 0 0-11.78 12.356l-.002.002a179 179 0 0 0-2.756 3.26l-.003.004a178.3 178.3 0 0 0-16.806 24.193c-.082.141-.17.28-.25.421l-.002.003c-.084.146-.163.295-.246.441a177 177 0 0 0-3.862 7.121l-.001.001c-12.446 24.3-19.47 51.839-19.47 81.018 0 4.607.177 9.172.52 13.69v.001q.173 2.26.4 4.503a177 177 0 0 0 2.697 17.667v.002a177 177 0 0 0 3.135 12.852q.6 2.112 1.25 4.2v.001q.65 2.09 1.35 4.156v.001q.7 2.067 1.448 4.11c.086.237.18.47.268.707h-.003c.089.24.185.476.275.716l.006.016c.33.877.656 1.756 1 2.627.063.164.133.324.198.487l.01.026.209.509c.451 1.124.909 2.245 1.382 3.359.165.387.338.77.506 1.155.354.817.704 1.636 1.07 2.447q.046.1.093.197l.01.022c.294.648.6 1.29.9 1.934.294.626.581 1.255.881 1.877l.049.103h.003a177 177 0 0 0 1.813 3.646v.001q.016.032.034.063a178 178 0 0 0 4.075 7.5 178 178 0 0 0 4.459 7.336v.001a178 178 0 0 0 4.796 7.099c.603.848 1.22 1.686 1.838 2.522.23.311.452.627.683.937h.001l.343.447a179 179 0 0 0 4.94 6.274v.001a179 179 0 0 0 2.758 3.261v.001q1.398 1.614 2.834 3.193v.001a179 179 0 0 0 5.893 6.178 178.6 178.6 0 0 0 41.01 30.646h.001c25.216 13.699 54.112 21.479 84.826 21.479 26.108 0 50.901-5.621 73.238-15.72h.001a177 177 0 0 0 19.04-10.042l.001-.001a178 178 0 0 0 10.738-7.067l.002-.002a179 179 0 0 0 25.764-22.308l.036-.036a179 179 0 0 0 8.502-9.581v-.002q1.36-1.646 2.681-3.326l.001-.003q1.32-1.68 2.602-3.391v-.001a178 178 0 0 0 11.775-17.895v-.001q1.061-1.843 2.077-3.714l.001-.004.015-.026.006-.009v-.001c.106-.195.205-.394.31-.589.271-.503.534-1.01.8-1.516.289-.548.586-1.092.869-1.644l.03-.06a177 177 0 0 0 4.806-10.193c.225-.518.459-1.033.68-1.554q.843-1.995 1.64-4.015v-.001a177 177 0 0 0 1.545-4.063v-.001c.271-.74.525-1.49.787-2.234.22-.627.449-1.249.662-1.878q.699-2.065 1.348-4.155v-.003q.65-2.088 1.25-4.198v-.003c.17-.598.326-1.203.49-1.804a177 177 0 0 0 2.308-9.503c.11-.515.231-1.027.337-1.544v-.003q.445-2.17.836-4.36v-.002c.044-.241.078-.486.12-.728a178 178 0 0 0 1.675-12c.02-.193.046-.384.066-.576v-.001q.227-2.243.4-4.502v-.003q.171-2.258.287-4.532v-.001l.007-.173c.086-1.738.14-3.484.177-5.235.026-1.248.048-2.496.048-3.75 0-49.144-19.919-93.633-52.124-125.84q-1.509-1.509-3.052-2.983h-.001a179 179 0 0 0-3.125-2.909h-.001a179 179 0 0 0-20.155-15.838 178 178 0 0 0-22.346-12.843h-.001a177 177 0 0 0-7.882-3.564h-.001q-1.995-.845-4.015-1.641h-.001a177 177 0 0 0-8.175-2.994h-.001a177 177 0 0 0-4.156-1.35h-.001q-2.09-.65-4.2-1.249-2.112-.6-4.243-1.148a177 177 0 0 0-4.284-1.046h-.001a177 177 0 0 0-13.087-2.506h-.001a179 179 0 0 0-22.507-1.993h-.001a181 181 0 0 0-4.592-.058z" filter="url(#a)" opacity=".3" transform="translate(7.957 5.638)scale(.96662)"/><path fill="#4aaee6" d="M192 19.98c95.008 0 172.02 77.013 172.02 172.02S287.007 364.02 192 364.02c-95.004 0-172.02-77.013-172.02-172.02C19.98 96.996 96.993 19.98 192 19.98"/><g stroke-width="1.333"><path d="m264.235 109.259-.023.007c-69.671 1.053-108.678 40.783-129.245 79.463-18.819 35.406-21.651 64.68-22.207 70.348H33.551a171 171 0 0 0 7.213 14.96h77.846c2.134 0 4.21-.967 5.612-2.572.785-.936 1.373-2.073 1.634-3.278a5 5 0 0 0 0-.936s3.507-35.433 22.44-71.05c17.67-33.212 49.081-65.321 105.155-70.347-33.364 66.787 1.669 143.97 1.669 143.97.26.321.582.641.933.932 1.288 1.899 3.508 3.157 5.811 3.278h81.37a171 171 0 0 0 7.212-14.96h-82.971c-2.866-6.392-35.115-80.166 3.538-138.366.993-1.748 1.258-3.907.702-5.836a7.66 7.66 0 0 0-1.638-3.278 7.6 7.6 0 0 0-5.842-2.34z" opacity=".3"/><path fill="#0f2b5c" d="m264.235 102.01-.023.006c-69.671 1.054-108.678 40.783-129.245 79.463-18.819 35.407-21.651 64.68-22.207 70.348H30.673a171 171 0 0 0 6.37 14.96h81.564c2.134 0 4.21-.967 5.612-2.572.785-.936 1.373-2.073 1.634-3.278.03-.32.03-.64 0-.935 0 0 3.507-35.434 22.44-71.05 17.67-33.213 49.081-65.322 105.155-70.347-33.364 66.787 1.67 143.97 1.67 143.97.26.32.581.64.932.931 1.288 1.9 3.508 3.157 5.811 3.278h85.082a171 171 0 0 0 6.37-14.96H267.47c-2.866-6.392-35.115-80.166 3.539-138.365.993-1.749 1.257-3.907.702-5.837a7.66 7.66 0 0 0-1.638-3.278 7.6 7.6 0 0 0-5.842-2.34z"/><path d="M20.027 188.374a175 175 0 0 0-.047 3.624c0 95.006 77.012 172.019 172.018 172.019s172.019-77.013 172.019-172.019c0-1.211-.022-2.419-.047-3.624-1.93 93.331-78.18 168.393-171.975 168.393-93.788 0-170.04-75.062-171.968-168.393" opacity=".3"/><path fill="#fff" d="M192 19.98C96.994 19.98 19.982 96.994 19.982 192c0 1.211.021 2.418.046 3.624 1.93-93.331 78.18-168.394 171.968-168.394 93.795 0 170.04 75.063 171.975 168.394.025-1.206.047-2.413.047-3.625 0-95.006-77.013-172.018-172.019-172.018z" opacity=".3"/></g></svg>